<svg xmlns="http://www.w3.org/2000/svg" enable-background="new 0 0 2000 2000" viewBox="0 0 2000 2000"><rect width="2000" height="2000" fill="#fff" fill-rule="evenodd" class="colorffffff svgShape" clip-rule="evenodd" display="none"/><path fill="#d9d5ff" d="M1836.9,928.2c53.8,190-164.2,593.4-571.9,758.4c-407.8,165-812.8,93.1-904.7-160.5    c-37.4-103.8,73.1-221.7,48.4-336.4c-18.1-108.6-342.1-312.2-230.1-551.5c112-239.4,691.1-307.3,904.5-161    c213.6,146.5,286.7,184.3,338.9,203.9C1497.7,712.7,1783.2,738.4,1836.9,928.2L1836.9,928.2z" class="colord5f0ff svgShape" opacity=".5"/><path fill="#fff" fill-rule="evenodd" d="M1024.2,239h761c14,0,25.5,5.6,25.5,12.5v515.1c0,6.9-11.5,12.5-25.5,12.5h-761      c-14,0-25.4-5.6-25.4-12.5V251.5C998.8,244.7,1010.2,239,1024.2,239L1024.2,239z" class="colorffffff svgShape" clip-rule="evenodd"/><path fill="#4234bd" d="M1785.2,781.3h-761c-16.4,0-29.8-6.6-29.8-14.7V251.5c0-8.1,13.4-14.7,29.8-14.7h761      c16.5,0,29.8,6.6,29.8,14.7v515.1C1815.1,774.7,1801.7,781.3,1785.2,781.3z M1024.2,241.2c-11.6,0-21,4.6-21,10.3v515.1      c0,5.7,9.4,10.3,21,10.3h761c11.6,0,21.1-4.6,21.1-10.3V251.5c0-5.7-9.5-10.3-21.1-10.3H1024.2z" class="color34bdb8 svgShape"/><path fill="#4638c0" fill-rule="evenodd" d="M1815.1,283H994.4v-67.9c0-14.1,11.5-25.7,25.7-25.7h769.2c14.1,0,25.7,11.6,25.7,25.7V283z     " class="color38bec0 svgShape" clip-rule="evenodd"/><path fill="#5d4ced" fill-rule="evenodd" d="M1054.8,255c10.3,0,18.7-8.4,18.7-18.7c0-10.3-8.4-18.7-18.7-18.7     c-10.3,0-18.7,8.4-18.7,18.7C1036.1,246.6,1044.5,255,1054.8,255L1054.8,255z" class="colored4c6f svgShape" clip-rule="evenodd"/><path fill="#5642fe" fill-rule="evenodd" d="M1114.2,255c10.3,0,18.7-8.4,18.7-18.7c0-10.3-8.4-18.7-18.7-18.7     c-10.3,0-18.7,8.4-18.7,18.7C1095.4,246.6,1103.8,255,1114.2,255L1114.2,255z" class="colorfeb542 svgShape" clip-rule="evenodd"/><path fill="#422cfe" fill-rule="evenodd" d="M1173.9,255c10.3,0,18.7-8.4,18.7-18.7c0-10.3-8.4-18.7-18.7-18.7     c-10.3,0-18.7,8.4-18.7,18.7C1155.2,246.6,1163.7,255,1173.9,255L1173.9,255z" class="color2c7efe svgShape" clip-rule="evenodd"/><path fill="#fff" fill-rule="evenodd" d="M1260.1,219H1604c9.4,0,17.2,7.8,17.2,17.3l0,0c0,9.4-7.8,17.2-17.2,17.2h-343.9     c-9.4,0-17.2-7.8-17.2-17.2l0,0C1242.9,226.8,1250.6,219,1260.1,219L1260.1,219z" class="colorffffff svgShape" clip-rule="evenodd"/><path fill="#fff" fill-rule="evenodd" d="M1702.1,213.1h61.1c2.6,0,4.6,2.1,4.6,4.6l0,0c0,2.6-2,4.7-4.6,4.7h-61.1     c-2.6,0-4.7-2.1-4.7-4.7l0,0C1697.4,215.2,1699.5,213.1,1702.1,213.1L1702.1,213.1z" class="colorffffff svgShape" clip-rule="evenodd"/><path fill="#fff" fill-rule="evenodd" d="M1702.1,232.3h61.1c2.6,0,4.6,2.1,4.6,4.7l0,0c0,2.6-2,4.7-4.6,4.7h-61.1     c-2.6,0-4.7-2.1-4.7-4.7l0,0C1697.4,234.4,1699.5,232.3,1702.1,232.3L1702.1,232.3z" class="colorffffff svgShape" clip-rule="evenodd"/><path fill="#fff" fill-rule="evenodd" d="M1702.1,250.1h61.1c2.6,0,4.6,2.1,4.6,4.7l0,0c0,2.5-2,4.6-4.6,4.6h-61.1     c-2.6,0-4.7-2.1-4.7-4.6l0,0C1697.4,252.2,1699.5,250.1,1702.1,250.1L1702.1,250.1z" class="colorffffff svgShape" clip-rule="evenodd"/><path fill="#9184fe" fill-rule="evenodd" d="M1266.3,592.3h276.8c8.1,0,14.6-5.5,14.6-12.3v-20.5c0-6.8-6.5-12.3-14.6-12.3h-276.8       c-8.1,0-14.6,5.5-14.6,12.3V580C1251.7,586.8,1258.3,592.3,1266.3,592.3z" class="color84b2fe svgShape" clip-rule="evenodd"/><ellipse cx="1287" cy="570.4" fill="#fff" fill-rule="evenodd" class="colorffffff svgShape" clip-rule="evenodd" rx="4.6" ry="4.4"/><ellipse cx="1300.2" cy="570.4" fill="#fff" fill-rule="evenodd" class="colorffffff svgShape" clip-rule="evenodd" rx="4.6" ry="4.4"/><ellipse cx="1315.1" cy="570.4" fill="#fff" fill-rule="evenodd" class="colorffffff svgShape" clip-rule="evenodd" rx="4.6" ry="4.4"/><ellipse cx="1328.2" cy="570.4" fill="#fff" fill-rule="evenodd" class="colorffffff svgShape" clip-rule="evenodd" rx="4.6" ry="4.4"/><ellipse cx="1343" cy="570.4" fill="#fff" fill-rule="evenodd" class="colorffffff svgShape" clip-rule="evenodd" rx="4.6" ry="4.4"/><ellipse cx="1356.2" cy="570.4" fill="#fff" fill-rule="evenodd" class="colorffffff svgShape" clip-rule="evenodd" rx="4.6" ry="4.4"/><ellipse cx="1371.1" cy="570.4" fill="#fff" fill-rule="evenodd" class="colorffffff svgShape" clip-rule="evenodd" rx="4.6" ry="4.4"/><ellipse cx="1384.2" cy="570.4" fill="#fff" fill-rule="evenodd" class="colorffffff svgShape" clip-rule="evenodd" rx="4.6" ry="4.4"/><path fill="#9184fe" fill-rule="evenodd" d="M1266.3,662.2h276.8c8.1,0,14.6-5.5,14.6-12.3v-20.5c0-6.8-6.5-12.3-14.6-12.3h-276.8       c-8.1,0-14.6,5.5-14.6,12.3v20.5C1251.7,656.7,1258.3,662.2,1266.3,662.2z" class="color84b2fe svgShape" clip-rule="evenodd"/><ellipse cx="1287" cy="641.1" fill="#fff" fill-rule="evenodd" class="colorffffff svgShape" clip-rule="evenodd" rx="4.6" ry="4.4"/><ellipse cx="1300.2" cy="641.1" fill="#fff" fill-rule="evenodd" class="colorffffff svgShape" clip-rule="evenodd" rx="4.6" ry="4.4"/><ellipse cx="1315.1" cy="641.1" fill="#fff" fill-rule="evenodd" class="colorffffff svgShape" clip-rule="evenodd" rx="4.6" ry="4.4"/><ellipse cx="1328.2" cy="641.1" fill="#fff" fill-rule="evenodd" class="colorffffff svgShape" clip-rule="evenodd" rx="4.6" ry="4.4"/><ellipse cx="1343" cy="641.1" fill="#fff" fill-rule="evenodd" class="colorffffff svgShape" clip-rule="evenodd" rx="4.6" ry="4.4"/><ellipse cx="1356.2" cy="641.1" fill="#fff" fill-rule="evenodd" class="colorffffff svgShape" clip-rule="evenodd" rx="4.6" ry="4.4"/><ellipse cx="1371.1" cy="641.1" fill="#fff" fill-rule="evenodd" class="colorffffff svgShape" clip-rule="evenodd" rx="4.6" ry="4.4"/><ellipse cx="1384.2" cy="641.1" fill="#fff" fill-rule="evenodd" class="colorffffff svgShape" clip-rule="evenodd" rx="4.6" ry="4.4"/><g class="color000000 svgShape"><path fill="#5442ea" fill-rule="evenodd" d="M1481.3,753.5h-153.1c-12.9,0-23.4-10.5-23.4-23.4v-11.6c0-12.9,10.5-23.4,23.4-23.4h153.1       c12.9,0,23.4,10.5,23.4,23.4v11.6C1504.7,743.1,1494.2,753.5,1481.3,753.5z" class="colorea4266 svgShape" clip-rule="evenodd"/><path fill="#fff" d="M1342.4,735.1c-2,0-3.9-0.3-5.7-0.9c-1.8-0.6-3.3-1.3-4.3-2.2l1.6-3.7c1,0.8,2.3,1.5,3.8,2        c1.5,0.5,3,0.8,4.6,0.8c1.3,0,2.4-0.1,3.2-0.4c0.8-0.3,1.4-0.7,1.8-1.2c0.4-0.5,0.6-1.1,0.6-1.7c0-0.8-0.3-1.4-0.8-1.9        c-0.6-0.5-1.3-0.9-2.2-1.1c-0.9-0.3-1.9-0.5-3-0.8c-1.1-0.2-2.2-0.5-3.2-0.9c-1.1-0.3-2.1-0.8-3-1.3c-0.9-0.5-1.6-1.2-2.2-2.1        c-0.6-0.9-0.8-2-0.8-3.4c0-1.4,0.4-2.7,1.1-3.8c0.7-1.2,1.9-2.1,3.4-2.8c1.5-0.7,3.4-1,5.8-1c1.5,0,3,0.2,4.6,0.6        c1.5,0.4,2.8,0.9,3.9,1.7l-1.5,3.7c-1.1-0.7-2.3-1.2-3.5-1.5c-1.2-0.3-2.4-0.5-3.5-0.5c-1.3,0-2.4,0.2-3.2,0.5        c-0.8,0.3-1.4,0.7-1.8,1.2c-0.4,0.5-0.6,1.1-0.6,1.7c0,0.8,0.3,1.4,0.8,1.9c0.5,0.5,1.3,0.8,2.2,1.1c0.9,0.3,1.9,0.5,3,0.8        c1.1,0.3,2.2,0.5,3.3,0.9c1.1,0.3,2.1,0.7,3,1.2c0.9,0.5,1.6,1.2,2.2,2.1c0.5,0.9,0.8,2,0.8,3.3c0,1.4-0.4,2.6-1.1,3.8        c-0.7,1.2-1.9,2.1-3.4,2.8C1346.6,734.8,1344.7,735.1,1342.4,735.1z" class="colorffffff svgShape"/><path fill="#fff" d="M1359.2,712.1c-0.9,0-1.5-0.3-2.1-0.8c-0.5-0.5-0.8-1.2-0.8-1.9c0-0.8,0.3-1.4,0.8-1.9        c0.5-0.5,1.2-0.8,2.1-0.8c0.9,0,1.5,0.2,2.1,0.7c0.5,0.5,0.8,1.1,0.8,1.9c0,0.8-0.3,1.5-0.8,2        C1360.8,711.8,1360.1,712.1,1359.2,712.1z M1356.9,734.8v-19.5h4.6v19.5H1356.9z" class="colorffffff svgShape"/><path fill="#fff" d="M1375.7,733.9c-1.8,0-3.5-0.4-5-1.2c-1.5-0.8-2.7-1.9-3.5-3.3c-0.9-1.4-1.3-3.1-1.3-5        c0-1.9,0.4-3.5,1.3-4.9c0.9-1.4,2-2.5,3.5-3.3c1.5-0.8,3.2-1.2,5-1.2c1.7,0,3.1,0.3,4.4,1c1.3,0.7,2.4,1.7,3.2,3.1        c0.8,1.4,1.2,3.2,1.2,5.3c0,2.2-0.4,3.9-1.2,5.3c-0.8,1.4-1.8,2.4-3.2,3.1C1378.8,733.6,1377.4,733.9,1375.7,733.9z         M1376.3,742.1c-1.8,0-3.6-0.2-5.3-0.7c-1.7-0.5-3.1-1.2-4.2-2.1l2-3.4c0.9,0.7,1.9,1.3,3.2,1.7c1.3,0.4,2.6,0.6,4,0.6        c2.1,0,3.7-0.5,4.7-1.5c1-1,1.5-2.5,1.5-4.4v-3.5l0.4-4.4l-0.1-4.4v-4.7h4.3v16.5c0,3.5-0.9,6.1-2.7,7.8        C1382.3,741.3,1379.7,742.1,1376.3,742.1z M1376.4,730c1.1,0,2.2-0.2,3.1-0.7c0.9-0.5,1.6-1.1,2.1-2c0.5-0.8,0.7-1.8,0.7-2.9        c0-1.1-0.2-2.1-0.7-2.9c-0.5-0.8-1.2-1.5-2.1-1.9c-0.9-0.4-1.9-0.7-3.1-0.7c-1.1,0-2.2,0.2-3.1,0.7c-0.9,0.4-1.6,1.1-2.1,1.9        c-0.5,0.8-0.7,1.8-0.7,2.9c0,1.1,0.2,2.1,0.7,2.9c0.5,0.8,1.2,1.5,2.1,2C1374.2,729.8,1375.3,730,1376.4,730z" class="colorffffff svgShape"/><path fill="#fff" d="M1403.8,715.1c1.6,0,2.9,0.3,4.2,0.9c1.2,0.6,2.2,1.5,2.9,2.8c0.7,1.3,1.1,2.9,1.1,4.8v11.2h-4.6v-10.6        c0-1.7-0.4-3-1.2-3.9c-0.8-0.9-2-1.3-3.4-1.3c-1.1,0-2,0.2-2.8,0.7c-0.8,0.4-1.5,1.1-1.9,1.9c-0.4,0.9-0.7,1.9-0.7,3.3v9.8        h-4.6v-19.5h4.3v5.2l-0.8-1.6c0.7-1.2,1.7-2.2,3-2.9C1400.6,715.4,1402.1,715.1,1403.8,715.1z" class="colorffffff svgShape"/><path fill="#fff" d="M1439.2,735.1c-3.5,0-6.2-1-8.2-3c-2-2-3-4.8-3-8.5v-14.4h4.7v14.2c0,2.6,0.6,4.5,1.7,5.7        c1.1,1.2,2.7,1.8,4.8,1.8c2.1,0,3.7-0.6,4.8-1.8c1.1-1.2,1.7-3.1,1.7-5.7v-14.2h4.7v14.4c0,3.7-1,6.6-3,8.5        C1445.4,734.1,1442.7,735.1,1439.2,735.1z" class="colorffffff svgShape"/><path fill="#fff" d="M1456.5,741.8v-26.5h4.3v4.6l-0.1,5.2l0.4,5.2v11.6H1456.5z M1467.3,735c-1.6,0-3-0.4-4.3-1.1        c-1.3-0.7-2.3-1.8-3.1-3.3c-0.8-1.5-1.1-3.3-1.1-5.6c0-2.3,0.4-4.2,1.1-5.6c0.7-1.5,1.8-2.5,3-3.3c1.3-0.7,2.8-1.1,4.4-1.1        c1.9,0,3.6,0.4,5.1,1.2c1.5,0.8,2.6,2,3.5,3.5c0.9,1.5,1.3,3.2,1.3,5.2c0,2-0.4,3.8-1.3,5.3c-0.9,1.5-2,2.7-3.5,3.5        C1470.9,734.6,1469.2,735,1467.3,735z M1466.8,731.1c1.1,0,2.1-0.2,2.9-0.7c0.9-0.5,1.5-1.2,2.1-2.1c0.5-0.9,0.8-2,0.8-3.2        c0-1.3-0.3-2.4-0.8-3.3c-0.5-0.9-1.2-1.6-2.1-2.1c-0.9-0.5-1.8-0.7-2.9-0.7c-1.1,0-2.1,0.2-3,0.7c-0.9,0.5-1.6,1.2-2.1,2.1        c-0.5,0.9-0.8,2-0.8,3.3c0,1.2,0.3,2.3,0.8,3.2c0.5,0.9,1.2,1.6,2.1,2.1C1464.7,730.9,1465.7,731.1,1466.8,731.1z" class="colorffffff svgShape"/></g><g class="color000000 svgShape"><path fill="#7062ec" fill-rule="evenodd" d="M1404.8,524.3c64.6,0,117.2-52.7,117.2-117.3s-52.6-117.3-117.2-117.3       c-64.6,0-117.3,52.7-117.3,117.3S1340.1,524.3,1404.8,524.3L1404.8,524.3z" class="color62cbec svgShape" clip-rule="evenodd"/><path fill="#fff" fill-rule="evenodd" d="M1425.2,425.6c31.3,7.7,55.6,32.7,62.5,64.3c-21.2,21.3-50.6,34.5-83,34.5       c-32.5,0-61.8-13.1-83-34.5c6.9-31.5,31.3-56.5,62.5-64.3c-12.5-7.2-21-20.6-21-36.1c0-22.9,18.5-41.5,41.5-41.5       c22.9,0,41.5,18.6,41.5,41.5C1446.3,405,1437.8,418.4,1425.2,425.6L1425.2,425.6z" class="colorffffff svgShape" clip-rule="evenodd"/></g><path fill="#9184fe" d="M1360.1,1406.8v382.4c0,79.3-27.7,152.4-74.4,210.8H714.3c-46.7-58.4-74.4-131.5-74.4-210.8v-382.4    c0-191.2,161.2-346.3,360.1-346.3c99.4,0,189.5,38.8,254.6,101.4C1319.8,1224.6,1360.1,1311.2,1360.1,1406.8z" class="color84b2fe svgShape"/><g class="color000000 svgShape"><path fill="#422cfe" d="M1224.3,1216.8L1224.3,1216.8c-36.7-33.7-101.9-69.7-147.8-72l-12.7-0.7l-7,0.7l-56.7-4.4l-50.6,3.9     l-13-0.2l-12.7,0.7c-43.4,2.2-103.9,34.5-141.4,66.4l0,0c-122.5,100.2-289.5,267.5-266.1,343.2     c50.3,84.4,176.9,217.6,265.3,326.5l7.6-5.1l3,53.6h137.3h141.5h134.1l3.4-55.5l10.5,7c88.4-108.9,214.9-242.1,265.2-326.5     C1507.3,1478.7,1332.9,1307.4,1224.3,1216.8z M672.8,1556.1l92.6-100.2l14.1,249.8L672.8,1556.1z M1218.4,1709l15.5-254.1     l93.5,101.2L1218.4,1709z" class="color2c7efe svgShape"/><path fill="#8d80f8" d="M929.1,1006.6l-2.1,183.5c17.4,36,48.6,58.3,76.1,64.9l0.9,0.4c0.6-0.1,0.4,0.2,1,0.1      c0.5,0.1,0.5-0.2,1.1-0.1l0.7-0.4c27.4-6.6,58.5-28.9,76.1-64.9l-2.1-183.5h-27.9h-95.9H929.1z" class="colorf8a780 svgShape"/><path fill="#b6adff" d="M830.4,788.1c19.4,121.4,29.6,357.5,174,371.7v0.1c0.1,0,0.2-0.1,0.5-0.1      c0.1,0,0.4,0.1,0.5,0.1v-0.1c144.3-14.2,154.7-250.3,173.9-371.7h-173.9h-1H830.4z" class="colorffcdad svgShape"/><path fill="#0b0352" d="M894.6,810.2c-2.9,52.9-34.9,87.8-45.6,107.4c-31.8-52.3-68.3-156.6-60.1-205.8      c13.3-49.1,83.4-21.8,125-32.7c24.6-11.3,8.2-52.2,79-65.5c58.1-13.5,209.3,44.6,219,117.6c5.1,66.3-27.6,149.7-53,197.7      C1124,762.5,982.5,879.4,894.6,810.2L894.6,810.2z" class="color060352 svgShape"/><path fill="#fff" fill-rule="evenodd" d="M1058.1,1069.5c-10.9,25.7-29.1,43-50.9,44.1c-21.7,1.1-42-13.9-55.4-38.3c16.3,6.7,34.6,10,53.7,9.1      C1024.8,1083.4,1042.7,1078,1058.1,1069.5L1058.1,1069.5z" class="colorffffff svgShape" clip-rule="evenodd"/></g><g class="color000000 svgShape"><polygon fill="#9184fe" fill-rule="evenodd" points="562.4 382.4 208.5 456.9 285.7 508.7" class="color84b2fe svgShape" clip-rule="evenodd"/><polygon fill="#422cfe" fill-rule="evenodd" points="563.1 384.6 285.7 508.7 316.5 595.8" class="color2c7efe svgShape" clip-rule="evenodd"/><polygon fill="#1606a3" fill-rule="evenodd" points="382.4 539.6 316.5 595.8 326.8 534.4" class="color0643a3 svgShape" clip-rule="evenodd"/><polygon fill="#9184fe" fill-rule="evenodd" points="424.9 586.2 327.8 533.1 568.5 384.6" class="color84b2fe svgShape" clip-rule="evenodd"/><path fill="#9184fe" d="M302.4,608l5.1,3.9l-8,10.3l-5.1-3.9L302.4,608z M936.2,1460.1h-1.9l-2.2-0.3h-1.9h-2.6     h-2.2l-0.3-6.4h2.6h2.6h2.2l2.2,0.3h2.2l1.3,0.3l-0.6,6.4L936.2,1460.1z M902.8,1460.1h-6.1l-3.9-0.3l0.3-6.4l3.5,0.3h6.1h2.9     v6.4H902.8z M871.6,1458.8l-6.4-0.3l-4.5-0.3l0.3-6.4l4.8,0.3l6.1,0.3l1.9,0.3l-0.3,6.4L871.6,1458.8z M840.1,1456.2l-6.1-1     l-5.5-0.6l0.6-6.4l5.5,1l6.1,0.6h1.3l-0.6,6.4H840.1z M808.6,1451.7l-6.1-1l-6.1-1l1.3-6.4l5.8,1l6.1,1l0.6,0.3l-1,6.4     L808.6,1451.7z M777.5,1445.9l-6.4-1.3l-6.1-1.6l1.6-6.1l5.8,1.3l6.4,1.3h0.3L777.5,1445.9L777.5,1445.9z M746.3,1438.6l-6.4-1.9     l-6.1-1.6l0,0l1.6-6.1h0.3l6.1,1.6l6.1,1.6l0,0L746.3,1438.6L746.3,1438.6z M709.3,1427.6l-6.1-2.2h-0.3l1.9-6.1h0.3l6.1,2.2     l5.8,1.6l-1.9,6.1L709.3,1427.6z M678.8,1416.7l-5.8-2.2l-0.3-0.3l2.3-5.8h0.3l6.1,2.2l5.5,2.2l-2.2,6.1L678.8,1416.7z      M649.2,1404.5l-5.8-2.6l-0.6-0.3l2.6-5.8l0.6,0.3l5.8,2.6l5.5,2.2l-2.6,5.8L649.2,1404.5z M620.3,1391l-5.8-2.9l-0.6-0.6     l2.9-5.5l1,0.3l5.5,2.9l4.8,2.3l-2.9,5.8L620.3,1391z M592.3,1375.9l-5.5-3.2l-1.3-0.6l3.2-5.5l1.3,0.6l5.5,3.2l4.2,2.2l-3.2,5.8     L592.3,1375.9z M565,1359.5l-5.1-3.5l-1.9-1.3l3.5-5.1l1.9,1l5.1,3.5l3.9,2.6l-3.5,5.1L565,1359.5z M539,1341.8l-4.8-3.9     l-2.6-1.9l3.9-4.8l2.6,1.6l4.8,3.5l2.9,2.3l-3.5,5.1L539,1341.8z M514.2,1322.5l-4.8-3.9l-2.9-2.6l4.2-5.1l2.9,2.9l4.8,3.9     l1.9,1.6l-3.9,4.8L514.2,1322.5z M490.8,1302.3l-4.5-4.2l-3.9-3.9l4.5-4.5l3.9,3.5l4.5,4.2l1,1l-4.5,4.8L490.8,1302.3z      M464.7,1275.9l-4.2-4.5l-0.6-0.6l4.8-4.2l0.6,0.6l4.2,4.5l3.9,4.2l-4.5,4.5L464.7,1275.9z M444.8,1252.8l-3.9-4.5l-1.6-2.2     l5.1-3.9l1.6,1.9l3.5,4.8l2.6,3.2l-4.8,4.2L444.8,1252.8z M426.5,1228.7l-3.5-5.1l-2.6-3.9l5.5-3.5l2.6,3.9l3.2,4.8l1.3,1.9     l-5.1,3.5L426.5,1228.7z M410.1,1203l-3.2-5.1l-2.9-5.5l-0.3-0.3l5.8-3.2l0.3,0.6l2.9,5.1l2.9,5.1v0.3l-5.5,3.2V1203z      M393,1170.8l-2.6-5.8l-1-2.2l5.8-2.6l1,2.2l2.6,5.5l1.9,3.9l-5.8,2.9L393,1170.8z M381.1,1142.5l-2.3-5.8l-1.3-4.2l6.1-1.9     l1.3,4.2l2.2,5.5l0.6,2.3l-5.8,2.3L381.1,1142.5z M371.5,1113.3l-0.6-2.9l-1-2.9l-0.6-3.2l-0.6-2.6l6.1-1.6l0.6,2.6l1,3.2     l0.6,2.9l1,2.9v0.6l-6.1,1.9L371.5,1113.3z M363.8,1079.9l-0.3-2.9l-0.6-3.2l-0.6-3.2v-0.6l6.4-1v0.6l0.6,3.2l0.3,2.9l0.6,3.2     l0.3,2.6l-6.1,1.3L363.8,1079.9z M359.6,1048.7l-0.3-3.2l-0.3-3.2l-0.3-3.2v-1.3l6.4-0.6v1.3l0.3,3.2l0.3,3.2l0.3,3.2v1.9     l-6.4,0.6V1048.7z M358,1016.2v-3.5v-3.2v-3.2v-1h6.4v1.3v3.2v2.9v3.5v1.9H358V1016.2z M359,984.1l0.3-3.2l0.3-3.2l0.3-3.2v-1.6     l6.4,0.6v1.6l-0.3,3.2l-0.3,2.9l-0.3,3.2v1.9l-6.4-0.6V984.1z M362.8,952.6l0.6-2.9l0.6-3.2l0.6-2.9l0.6-2.9l6.1,1.6l-0.6,2.6     l-0.3,2.9l-0.6,2.9l-0.6,3.2v1l-6.4-1.3V952.6z M370.5,919.8l1-2.9l0.6-2.6l1-2.9l0.6-1.9l6.1,1.9l-0.6,1.9l-1,2.9l-0.6,2.6     l-1,2.9l-0.6,1.9l-6.1-1.6L370.5,919.8z M381.5,889.3l1-2.6l1.3-2.6l1.3-2.6l1-2.2l5.8,2.9l-1,2.3l-1.3,2.2l-1,2.6l-1.3,2.6     l-0.6,1.9l-6.1-2.6L381.5,889.3z M395.6,861.9l1.3-2.6l1.6-2.2l1.6-2.2l1.6-2.2l1-1.3l5.1,3.5l-1,1.6l-1.6,1.9l-1.3,2.2l-1.6,2.2     l-1.3,2.2l-0.3,0.3l-5.5-3.2L395.6,861.9z M416.5,834l1.9-1.9l1.9-1.9l1.6-1.9l1.9-1.6l0,0l4.5,4.5l0,0l-1.9,1.9l-1.6,1.6     l-1.9,1.9l-1.6,1.9l-1.6,1.6l-4.8-4.2L416.5,834z M440,813.7l2.2-1.6l1.9-1.3l2.2-1.3l2.3-1.3l1.9-1.3l2.9,5.8l-1.6,1l-2.2,1.3     l-1.9,1.3l-1.9,1.3l-2.2,1.3l-0.6,0.3l-3.5-5.1L440,813.7z M469.5,798.6l2.6-1l2.2-0.6l2.6-1l2.6-0.6l1.6-0.3l1.6,6.1l-1.6,0.6     l-2.2,0.6l-2.6,0.6l-2.3,0.6l-2.2,0.6l-1.3,0.6l-1.9-6.1L469.5,798.6z M500.7,791.9h2.9l2.6-0.3h2.9h2.9h1.9l-0.3,6.4H512h-2.9     h-2.6l-2.6,0.3h-2.6H501L500.7,791.9L500.7,791.9z M535.4,793.5l2.9,0.3l3.2,0.6l2.9,0.6l1.9,0.3l-1.6,6.4l-1.6-0.3l-2.9-0.6     l-2.9-0.6l-3.2-0.6h-1.6l1-6.4L535.4,793.5z M566.6,801.2l3.2,1.3l3.2,1.3l3.5,1l1,0.6l-2.6,5.8l-1-0.3l-3.2-1.3l-3.2-1l-2.9-1.3     l-1.6-0.3l2.2-6.1L566.6,801.2z M595.5,813.7l1.9,1.3l2.2,1.3l1.9,1.3l1.9,1.3l1.9,1.3l1,0.6l-3.9,5.1l-0.6-0.3l-1.9-1.3     l-1.9-1.3l-1.9-1.3l-1.9-1.3l-1.9-1l-0.3-0.3l3.2-5.5H595.5z M621.6,833.3l1.6,1.6l1.6,1.6l1.6,1.6l1.6,1.9l1.6,1.6l1,1.3     l-4.8,4.2l-1.3-1.3l-1.3-1.6l-1.3-1.6l-1.6-1.6l-1.6-1.6l-1.6-1.3v-0.3L621.6,833.3L621.6,833.3z M642.5,859.7l1.3,1.6l1,1.9     l1.3,1.9l1,1.9l1,1.9l0.6,1.3l-5.8,2.9l-0.6-1.3l-1-1.6l-1-1.9l-1-1.9l-1-1.6l-1.3-1.9l-0.3-0.6l5.5-3.2L642.5,859.7z      M656.6,889.3l0.6,1.9l0.6,2.2l0.6,1.9l0.6,2.2l0.6,1.9l0.3,1.6l-6.4,1.6l-0.3-1.3l-0.3-2.2l-0.6-1.9l-0.6-1.9l-0.6-1.9l-0.6-2.2     l-0.3-0.6l6.1-1.9L656.6,889.3z M664,920.8l0.6,4.5l0.3,4.2l0.3,3.9l-6.4,0.6l-0.3-3.9l-0.3-4.2l-0.6-4.2v-0.3l6.4-1V920.8z      M665.6,954.8l-0.3,4.2v4.2l-0.3,2.9l-6.4-0.6l0.3-2.9l0.3-3.9v-4.2v-1.9l6.4,0.3V954.8z M661.4,987l-1,3.9l-1,3.9l-1,3.5     l-6.1-1.9l1-3.2l1-3.9l0.6-3.5l0.3-1.6l6.4,1.3L661.4,987z M650.2,1019.1l-0.6,1.6l-1,1.6l-1,1.3l-0.6,1.6l-1,1.6l-1,1.3     l-5.5-3.2l1-1.3l0.6-1.6l1-1.3l0.6-1.6l1-1.3l0.6-1.6l1.3-2.6l5.8,2.9L650.2,1019.1z M632.2,1044.8l-1.3,1.6l-1.6,1.6l-1.6,1.6     l-1.6,1.6l-1.6,1.6l-0.6,0.6l-4.2-4.8l0.6-0.6l1.3-1.3l1.6-1.6l1.6-1.3l1.3-1.6l1.3-1.6l1-1l4.8,4.2L632.2,1044.8z M607.7,1066.7     l-1.6,1l-1.9,1.3l-1.9,1.3l-1.6,1l-1.9,1.3l-1,0.6l-3.2-5.5l1-0.6l1.6-1l1.9-1.3l1.6-1l1.6-1.3l1.9-1.3l1-0.6l3.5,5.1     L607.7,1066.7z M579.5,1082.4l-1.9,1l-2.2,1l-1.9,0.6l-1.9,1l-2.2,0.6l-1,0.3l-2.2-5.8l1-0.3l1.9-1l2.2-0.6l1.9-1l1.9-0.6l1.9-1     l1-0.3l2.6,5.8L579.5,1082.4z M548,1093.4l-4.5,1l-4.5,1l-2.3,0.6l-1-6.4l1.9-0.3l4.5-1l4.2-1l1.6-0.6l1.6,6.4L548,1093.4z      M516.1,1099.1l-4.5,0.3l-4.8,0.3l-2.2,0.3l-0.3-6.4l2.2-0.3l4.5-0.3l4.5-0.3l1.3-0.3l0.6,6.4L516.1,1099.1z M483.4,1100.7     l-4.8-0.3h-4.8h-1.6l0.3-6.4h1.6h4.5l4.8,0.3h1.6v6.4H483.4z M449.3,1098.5l-4.8-0.6l-4.8-0.6l1-6.1l4.8,0.6l4.8,0.3l3.2,0.3     l-1,6.4L449.3,1098.5z M420,1094l-4.8-1l-4.8-1l-2.6-0.6l1.6-6.1l2.6,0.3l4.5,1.3l4.8,1h0.6l-1.3,6.1H420z M386.3,1085.6     l-4.8-1.3l-4.5-1.6h-0.3l1.9-6.1h0.3l4.5,1.6l4.8,1.3l2.6,1l-1.6,6.1L386.3,1085.6z M357.4,1076l-5.1-1.9l-4.8-2.3l-1-0.3     l2.6-6.1l1,0.6l4.8,1.9l5.1,1.9l0.6,0.3l-2.2,6.1L357.4,1076z M327.8,1062.5l-2.2-1.3l-2.2-1l-2.2-1.3l-2.2-1.6l-1.6-0.6l3.5-5.5     l1.3,0.6l2.3,1.3l2.2,1.3l2.2,1.3l2.2,1.3l0.6,0.3l-2.9,5.8L327.8,1062.5z M299.2,1045.1l-2.2-1.6l-1.9-1.6l-1.9-1.3l-2.2-1.6     l-0.3-0.6l3.9-4.8l0.6,0.3l1.9,1.6l1.9,1.3l1.9,1.6l1.9,1.3l1.9,1.3l-3.9,5.1L299.2,1045.1z M273.8,1024.6l-1.9-1.9l-1.6-1.6     l-1.9-1.9l-1.6-1.6l-0.6-0.6l4.5-4.5l0.6,0.6l1.9,1.6l1.6,1.9l1.6,1.6l1.9,1.6l1.6,1.3l-4.5,4.8L273.8,1024.6z M250.3,999.2     l-2.9-3.9l-2.6-3.2l5.5-3.9l2.3,3.2l2.9,3.9l2.6,2.9l-5.1,4.2L250.3,999.2z M233.9,975.4l-2.6-4.2l-2.6-4.5l-1.3-2.2l5.8-2.9     l1.3,2.2l2.2,3.9l2.6,4.2l0.3,0.6l-5.5,3.2L233.9,975.4z M218.2,944.9l-1.9-4.5l-1.6-4.5l-0.3-1.3l6.1-1.9l0.3,1l1.6,4.5l1.9,4.2     l0.6,1.9l-5.8,2.6L218.2,944.9z M206.9,912.1l-1-4.8l-1-3.5l6.1-1.6l1,3.5l1.3,4.8l1,3.9l-6.1,1.9L206.9,912.1z M200.8,882.5     l-0.6-5.1l-0.6-5.1v-0.6l6.4-0.6v0.6l0.6,5.1l0.6,4.8l0.3,1.9l-6.4,1L200.8,882.5z M197.9,851.6v-5.5V841v-1.9h6.4v1.9v5.1v5.1     l0.3,0.6h-6.4L197.9,851.6z M198.9,816.3l0.3-4.2l0.3-3.9l0.3-1.6l6.1,0.6v1.6l-0.3,3.9l-0.6,4.2v3.2l-6.4-0.6L198.9,816.3z      M203.4,784.5l0.6-3.9l1-3.9l0.6-2.2l6.1,1.6l-0.6,2.3l-0.6,3.5l-1,3.9l-0.6,2.9l-6.1-1.3L203.4,784.5z M211.4,754.9l1.3-3.5     l1.3-3.5l1.3-3.5l0.3-0.6l5.8,2.2l-0.3,1l-1.3,3.2l-1.3,3.5l-1,3.5l-0.3,1l-6.1-2.2L211.4,754.9z M224,724l1.6-3.2l1.9-3.2     l1.6-3.2v-0.3l5.8,3.2h-0.3l-1.6,3.2l-1.6,3.2l-1.6,3.2l-0.6,1.6l-5.8-2.9L224,724z M240,695.1l1.9-3.2l1.9-3.2l1.6-2.6l5.5,3.5     l-1.6,2.6l-1.9,2.9l-1.9,3.2l-1.3,2.2l-5.5-3.5L240,695.1z M260.6,663.9l2.9-4.5l5.5,3.9l-3.2,4.2l-4.2,6.1l-5.5-3.5L260.6,663.9     z M278.6,639.2l4.2-5.5l5.1,3.9l-4.2,5.5l-3.5,4.8l-5.1-3.9L278.6,639.2z" class="color84b2fe svgShape"/></g><g class="color000000 svgShape"><path fill="#b9b2f9" d="M1358.8,1462c-13.5,86.2-26.2,166-37.8,240.6c-9.1,57.6-17.6,112.1-25.9,163.9c-1.7,10.7-3.4,21.3-5.1,31.8     c-1.9,12.7-13.9,23.1-26.5,23.1H732c-12.4,0-24.1-10.2-26-22.9c-9-61.1-18.8-126.1-29.1-195.9c-11.1-74.5-22.9-154.7-35.8-240.9     c-3-19.4,7.5-35.6,23.4-35.6h671.3C1351.5,1426,1362,1442.3,1358.8,1462z" class="colorc6b2f9 svgShape"/><path fill="#d4cffd" d="M1358.8,1462c-13.5,86.2-26.2,166-37.8,240.6c-9.1,57.6-17.6,112.1-25.9,163.9H786.9     c-12.4,0-24.1-10.2-26-22.9c-9-61.1-18.8-126.1-29.1-195.9c-10.3-68.9-21.2-142.7-32.9-221.6h636.9     C1351.5,1426,1362,1442.3,1358.8,1462z" class="colordfcffd svgShape"/><path fill="#fff" d="M1069.8,1666.9c0.1,2.2,0.3,4.4,0.3,6.8c0,38.6-31.3,69.9-70.1,69.9     c-38.6,0-69.9-31.3-69.9-69.9c0-29.3,17.9-54.3,43.3-64.8c3.4,35.5,33.3,63.3,69.8,63.3     C1052.5,1672.2,1061.5,1670.3,1069.8,1666.9L1069.8,1666.9z" class="colorffffff svgShape"/></g><g class="color000000 svgShape"><path fill="#9d98c8" d="M1704.1,1766.5c6.1,15.1,9.5,31.6,9.5,48.9c0,72-58.7,130.5-131.2,130.5     c-72.5,0-131.2-58.5-131.2-130.5c0-17.3,3.4-33.8,9.5-48.9h2.5c0,0.2,0,0.5,0,0.8c0,24.7,53.3,44.8,119.2,44.8     c65.8,0,119.2-20.1,119.2-44.8c0-0.3,0-0.5,0-0.8H1704.1z" class="colora298c8 svgShape"/><path fill="#dadadb" d="M1582.4,1810.4c67.1,0,121.8-18.1,121.8-40.2c0-22.1-54.7-40.2-121.8-40.2     c-67.1,0-121.9,18.1-121.9,40.2C1460.5,1792.3,1515.3,1810.4,1582.4,1810.4L1582.4,1810.4z" class="colordbdadb svgShape"/><path fill="#3c328d" d="M1582.4,1751.4c56.9,0,104.8,12.2,118.2,28.6c-13.4,17.5-61.2,30.4-118.2,30.4     c-56.9,0-104.8-12.9-118.2-30.4C1477.6,1763.6,1525.5,1751.4,1582.4,1751.4L1582.4,1751.4z" class="color8d3b32 svgShape"/><path fill="#23178b" d="M1472,1616.1c33.5,25.2,75,24.2,98.1,62c23.1,37.7,25.8,81.4,10.7,115.4      c-37.2-1.9-75-24.2-98.1-61.9C1459.5,1693.8,1478.2,1653.5,1472,1616.1L1472,1616.1z" class="color17878b svgShape"/><path fill="#fff" d="M1581.6,1794.8l-0.9,0c-18.8-1-37.8-7.1-54.9-17.7c-17.7-10.9-32.9-26.4-44.2-44.8      c-14.7-24-12.7-49.2-10.8-73.5c1.1-14.1,2.3-28.6,0-42.4l-0.5-3.2l2.6,1.9c12.9,9.7,27.1,15.5,40.9,21.2      c22.2,9.1,43.2,17.7,57.6,41.2c11.3,18.4,18.1,39,19.9,59.7c1.7,20.1-1.5,39.8-9.1,56.9L1581.6,1794.8z M1473.7,1618.9      c1.7,13.2,0.6,26.8-0.4,40c-1.9,23.9-3.9,48.6,10.4,71.9c21.8,35.5,58.6,58.9,96.2,61.2c15-34.5,10.8-77.8-11-113.4      c-13.9-22.7-34.5-31.2-56.3-40.1C1499.6,1633.2,1486.2,1627.7,1473.7,1618.9z" class="colorffffff svgShape"/><path fill="#2716b7" d="M1581.9,1585.4c15.4,38.9,51.3,59.7,51.3,104c0,44.2-20.5,82.9-51.3,104      c-30.7-21.1-51.2-59.7-51.2-104C1530.6,1645.2,1567.6,1620.6,1581.9,1585.4L1581.9,1585.4z" class="color16b79e svgShape"/><path fill="#fff" d="M1581.9,1795l-0.7-0.5c-15.5-10.7-28.5-25.8-37.5-43.8c-9.3-18.5-14.2-39.7-14.2-61.2      c0-28.2,14.8-48.6,29.2-68.3c8.3-11.4,16.9-23.2,22.1-36.2l1.2-3l1.2,3c5.9,15,15,27.4,23.8,39.3c14.2,19.4,27.6,37.7,27.6,65.2      c0,21.5-4.9,42.7-14.3,61.2c-9.1,18-22.1,33.1-37.6,43.8L1581.9,1795z M1581.9,1588.8c-5.4,12.1-13.4,23.2-21.2,33.9      c-14.1,19.4-28.7,39.5-28.7,66.8c0,41.7,19.1,80.8,49.9,102.4c30.9-21.6,50-60.7,50-102.4c0-26.6-13.2-44.6-27.1-63.6      C1596.5,1614.5,1587.9,1602.8,1581.9,1588.8z" class="colorffffff svgShape"/><path fill="#5a4fbd" d="M1692.9,1616.1c-33.5,25.2-75,24.2-98.1,62c-23.1,37.7-25.8,81.4-10.7,115.4      c37.2-1.9,75-24.2,98.1-61.9C1705.3,1693.8,1686.6,1653.5,1692.9,1616.1L1692.9,1616.1z" class="color4fbd9d svgShape"/><path fill="#fff" d="M1583.3,1794.8l-0.4-0.8c-7.7-17.2-10.8-36.9-9.1-56.9c1.7-20.7,8.6-41.3,19.9-59.7      c14.4-23.4,35.3-32,57.6-41.2c13.7-5.6,28-11.5,40.9-21.2l2.6-1.9l-0.5,3.2c-2.3,13.8-1.2,28.4,0,42.4      c1.9,24.3,3.9,49.4-10.8,73.5c-11.3,18.4-26.6,33.9-44.2,44.8c-17.2,10.6-36.1,16.8-54.9,17.7L1583.3,1794.8z M1691.1,1618.9      c-12.5,8.8-25.9,14.3-38.9,19.7c-21.8,8.9-42.4,17.4-56.3,40.1c-21.8,35.5-26,78.9-11,113.4c37.6-2.3,74.3-25.7,96.2-61.2      c14.3-23.3,12.3-48,10.4-71.9C1690.5,1645.7,1689.4,1632.1,1691.1,1618.9z" class="colorffffff svgShape"/></g><g class="color000000 svgShape"><path fill="#fff" d="M294.5,1819.7c5.5-10.7,10.9-41.1,0-62.4c52.7,0,105.4,0,158.1,0      c40.4,16.3,15,61.6,0.3,62.4H294.5z" class="colorffffff svgShape"/><path fill="#948cdb" d="M470.6,1771.9H299.4c0.1,0.4,0.1,0.8,0.2,1.2h171.7      C471.1,1772.6,470.9,1772.2,470.6,1771.9L470.6,1771.9z" class="color8caedb svgShape"/><path fill="#948cdb" d="M474.3,1784.3H300.7c0,0.4,0,0.8,0,1.2h173.6v0l0-0.4v0l0,0v0v0l0,0v0v0l0,0v0l0,0v0v0      l0,0v0l0-0.2l0,0v0v0v0l0,0v0V1784.3L474.3,1784.3L474.3,1784.3L474.3,1784.3L474.3,1784.3L474.3,1784.3z" class="color8caedb svgShape"/><path fill="#948cdb" d="M468.8,1805.6H298.9c-0.1,0.4-0.2,0.8-0.3,1.2h169.5      C468.3,1806.4,468.6,1806,468.8,1805.6L468.8,1805.6z" class="color8caedb svgShape"/><linearGradient id="a" x1="5673.019" x2="6014.397" y1="1788.45" y2="1788.45" gradientTransform="matrix(-1.0139 0 0 1 6391.857 0)" gradientUnits="userSpaceOnUse"><stop class="stopColor1cb89d svgShape" offset=".005" stop-color="#2c1cb8"/><stop class="stopColor4fbd9d svgShape" offset="1" stop-color="#5a4fbd"/></linearGradient><path fill="url(#a)" d="M293.9,1824.6v-4.9h156.7h1c9.5-0.5,23.2-17.5,22.8-34.4l0,0c-0.3-10.8-6.4-21.6-23.1-28      h-1h-2.7h-2.7H442h-2.7h-2.7h-2.7H431h-2.7h-2.7h-2.7h-2.7h-2.7h-2.7h-2.7h-2.7h-2.7h-2.7H401h-2.7h-2.7h-2.7H390h-2.7h-2.7      h-2.7h-2.7h-2.7h-2.7h-2.7h-2.7h-2.7h-2.7H360h-2.7h-2.7h-2.7H349h-2.7h-2.7h-2.7h-2.7h-2.7h-2.7h-2.7h-2.7h-2.7h-2.7H319h-2.7      h-2.7h-2.7H308h-2.7h-2.7h-2.7h-2.7h-2.7h-0.5v-5c109.2,0,218.4,0,327.6,0c25.3,5.6,24,68.3,0.6,72.3H293.9z"/><path fill="#fff" d="M552.4,1824.9c6.8-25.6,7.5-49.4,1.9-72.8l-2,0.5c5.5,23,4.9,46.5-1.9,71.8       L552.4,1824.9z" class="colorffffff svgShape"/><path fill="#fff" d="M569,1824.9c6.9-25.6,7.7-49.4,2.2-72.8l-2,0.4c5.4,23.1,4.6,46.6-2.2,71.8L569,1824.9z       " class="colorffffff svgShape"/><path fill="#7c6fe9" d="M408,1827.9c-1.5-14.1,0.4-29,4.7-43.5c4.9,0,9.8,0,14.7,0c-4.4,16.7-1.8,31.5,0.4,45.7      l-11.8-10.9L408,1827.9z" class="colore96f89 svgShape"/><path fill="#fff" d="M674.7,1906.5c-6.6-13.1-13.1-50.3,0-76.2c-63.5,0-126.9,0-190.4,0      c-48.7,19.9-18.1,75.3-0.4,76.2H674.7z" class="colorffffff svgShape"/><path fill="#948cdb" d="M462.5,1848.1h206.3c-0.1,0.5-0.2,1-0.3,1.4H461.7      C461.9,1849.1,462.2,1848.6,462.5,1848.1L462.5,1848.1z" class="color8caedb svgShape"/><path fill="#948cdb" d="M458.1,1863.3h209c0,0.5,0,0.9,0,1.4H458v0v-0.5v0v0l0,0v0l0,0v0v0l0,0v0v0l0,0v0l0,0v0      l0-0.3l0,0v0v0v0l0,0v0v0l0,0V1863.3L458.1,1863.3L458.1,1863.3L458.1,1863.3z" class="color8caedb svgShape"/><path fill="#948cdb" d="M464.6,1889.3h204.7c0.1,0.5,0.2,1,0.3,1.4H465.5      C465.2,1890.3,464.9,1889.8,464.6,1889.3L464.6,1889.3z" class="color8caedb svgShape"/><linearGradient id="b" x1="258.461" x2="675.383" y1="1868.357" y2="1868.357" gradientUnits="userSpaceOnUse"><stop class="stopColor154a9a svgShape" offset=".005" stop-color="#23159a"/><stop class="stopColor4b76ba svgShape" offset="1" stop-color="#574bba"/></linearGradient><path fill="url(#b)" d="M675.4,1912.5v-6H486.7h-1.2c-11.5-0.6-28-21.4-27.4-42l0,0c0.3-13.2,7.7-26.4,27.8-34.2      h1.2h3.3h3.3h3.3h3.3h3.3h3.3h3.3h3.3h3.3h3.3h3.3h3.3h3.3h3.3h3.3h3.3h3.3h3.3h3.3h3.3h3.3h3.3h3.3h3.3h3.3h3.3h3.3h3.3h3.3      h3.3h3.3h3.3h3.3h3.3h3.3h3.3h3.3h3.3h3.3h3.3h3.3h3.3h3.3h3.3h3.3h3.3h3.3h3.3h3.3h3.3h3.3h3.3h3.3h3.3h3.3h3.3h3.3h0.6v-6      c-131.5,0-263.1,0-394.6,0c-30.4,6.9-29,83.4-0.7,88.3H675.4z"/><path fill="#5845fb" d="M538,1916.6c1.8-17.2-0.5-35.4-5.8-53.1c-5.9,0-11.8,0-17.7,0      c5.3,20.4,2.2,38.5-0.5,55.8l14.2-13.3L538,1916.6z" class="colorfbb445 svgShape"/><path fill="#fff" d="M363.9,1912.8c-8.2-31.3-9-60.4-2.3-88.9l2.4,0.6c-6.6,28.1-5.9,56.8,2.3,87.7       L363.9,1912.8z" class="colorffffff svgShape"/><path fill="#fff" d="M344,1912.8c-8.4-31.2-9.3-60.3-2.7-88.9l2.4,0.5c-6.5,28.2-5.6,56.9,2.7,87.7       L344,1912.8z" class="colorffffff svgShape"/></g><path fill="#8d80f8" d="M1823.8,1990.7v9.3H176.3v-9.3c0-45.1,42.8-81.7,95.6-81.7h1456.4C1781,1909.1,1823.8,1945.6,1823.8,1990.7z    " class="colorf8a780 svgShape"/><g class="color000000 svgShape"><ellipse cx="1556.4" cy="1134.7" fill="#fff" class="colorffffff svgShape" rx="215" ry="125"/><ellipse cx="1314.2" cy="1273.6" fill="#fff" class="colorffffff svgShape" rx="72.6" ry="42.2"/><ellipse cx="1191.9" cy="1342.2" fill="#fff" class="colorffffff svgShape" rx="49.7" ry="28.9"/><ellipse cx="1094.9" cy="1387.4" fill="#fff" class="colorffffff svgShape" rx="33.7" ry="19.6"/><path fill="#9184fe" d="M1697.1,1014.3v0.1c0,2.8-2.3,5.1-5.1,5.1h-271.2c-2.8,0-5.1-2.3-5.1-5.1v-0.1l27.6-21.8      l113-88.9l113,88.9L1697.1,1014.3z" class="color84b2fe svgShape"/><rect width="281.3" height="136.9" x="1415.8" y="1015.1" fill="#422cfe" class="color2c7efe svgShape"/><rect width="193.1" height="248.7" x="1459.9" y="939.3" fill="#fff" class="colorffffff svgShape"/><rect width="96.9" height="4.2" x="1475.7" y="1007.5" fill="#23159d" class="color15489d svgShape"/><rect width="161.4" height="4.2" x="1475.7" y="1022.3" fill="#23159d" class="color15489d svgShape"/><rect width="161.4" height="4.2" x="1475.7" y="1038.2" fill="#23159d" class="color15489d svgShape"/><rect width="161.4" height="4.2" x="1475.7" y="1054.3" fill="#23159d" class="color15489d svgShape"/><rect width="161.4" height="4.2" x="1475.7" y="1070.2" fill="#23159d" class="color15489d svgShape"/><rect width="161.4" height="4.2" x="1475.7" y="1084.8" fill="#23159d" class="color15489d svgShape"/><rect width="161.4" height="4.2" x="1475.7" y="1100.6" fill="#23159d" class="color15489d svgShape"/><rect width="161.4" height="4.2" x="1475.7" y="1116.7" fill="#23159d" class="color15489d svgShape"/><rect width="161.4" height="4.2" x="1475.7" y="1132.6" fill="#23159d" class="color15489d svgShape"/><rect width="161.4" height="4.2" x="1475.7" y="1147.4" fill="#23159d" class="color15489d svgShape"/><rect width="161.4" height="4.2" x="1475.7" y="1163.3" fill="#23159d" class="color15489d svgShape"/><path fill="#9184fe" d="M1697.1,1015.3v189.6c0,2.8-2.3,5.1-5.1,5.1h-271.2c-2.8,0-5.1-2.3-5.1-5.1v-189.6      l25.8,20l114.9,88.9l114.9-88.9L1697.1,1015.3z" class="color84b2fe svgShape"/><path fill="#422cfe" d="M1697.1,1204.8v0.1c0,2.8-2.3,5.1-5.1,5.1h-271.2c-2.8,0-5.1-2.3-5.1-5.1v-0.1l27.6-21.8      l113-88.9l113,88.9L1697.1,1204.8z" class="color2c7efe svgShape"/><path fill="#422cfe" d="M1588.9,1003.8c-4.5-5.3-6.7-12.6-6.7-21.8c0-7.2,1.2-13.7,3.5-19.5c2.3-5.8,5.9-10.3,10.6-13.7       c4.7-3.4,10.5-5.1,17.2-5.1c8.4,0,14.4,2.3,18.1,6.8c3.7,4.5,5.5,10.6,5.5,18.2c0,6.3-0.9,11.5-2.6,15.5       c-1.8,4-3.9,6.8-6.4,8.5c-2.5,1.7-5,2.6-7.5,2.6c-4.6,0-7.1-1.9-7.4-5.6h-0.2c-0.8,1.8-1.9,3-3.2,3.9c-1.3,0.8-2.9,1.2-4.8,1.2       c-2.5,0-4.5-0.9-5.9-2.7c-1.4-1.8-2.1-4.3-2.1-7.5c0-0.7,0.1-1.6,0.2-2.9l0.9-8.6c1-8.4,4.4-12.6,10.2-12.6       c3.5,0,5.8,1.7,7,5.2h0.2l0.8-4.8h7.9l-2.5,23.7l-0.1,1.4c0,1.1,0.6,1.6,1.7,1.6c2.2,0,3.9-1.9,5.1-5.8       c1.2-3.9,1.7-8.2,1.7-12.9c0-5.5-1.4-9.9-4.2-13.1c-2.8-3.2-7-4.8-12.7-4.8c-7.5,0-13.2,2.8-17.1,8.3       c-3.9,5.6-5.9,13.3-5.9,23.1c0,7,1.7,12.5,5,16.4c3.3,3.9,8.3,5.8,14.8,5.8c3.4,0,6.5-0.4,9.2-1.3c2.7-0.8,5.5-2.3,8.4-4.5       l-0.7,8.2c-2.7,1.8-5.4,3-8.2,3.7c-2.8,0.7-5.9,1.1-9.3,1.1C1600.2,1011.7,1593.3,1009.1,1588.9,1003.8z M1613.8,981.6l0.8-8.1       l0.1-1c0-1.2-0.3-2.2-1-2.8c-0.7-0.6-1.6-0.9-2.7-0.9c-1.4,0-2.5,0.4-3.3,1.2c-0.8,0.8-1.3,2.2-1.5,4.1l-0.8,7.2l-0.1,1.3       c0,1.5,0.3,2.6,1,3.3c0.7,0.7,1.6,1.1,2.8,1.1C1611.9,986.9,1613.4,985.1,1613.8,981.6z" class="color2c7efe svgShape"/><path fill="#5a4ae3" fill-rule="evenodd" d="M1480.8,958.2l29.2,0.1c1.9,0,3.4,1.5,3.4,3.4l-0.1,20.9c0,1.9-1.5,3.4-3.4,3.4         l-29.2-0.1c-1.9,0-3.4-1.5-3.4-3.4l0.1-20.8C1477.4,959.7,1479,958.2,1480.8,958.2L1480.8,958.2z" class="color4b76ba svgShape" clip-rule="evenodd"/><path fill="#fff" d="M1509.9,986.1C1509.9,986.1,1509.9,986.1,1509.9,986.1l-29.2-0.1         c-0.9,0-1.8-0.4-2.5-1c-0.7-0.7-1-1.6-1-2.5l0.1-20.8c0-1.9,1.6-3.5,3.5-3.5c0,0,0,0,0,0l0,0l29.2,0.1c1.9,0,3.5,1.6,3.5,3.5         l-0.1,20.9C1513.5,984.5,1511.9,986.1,1509.9,986.1z M1480.8,958.3c-1.8,0-3.3,1.5-3.3,3.3l-0.1,20.8c0,0.9,0.3,1.7,0.9,2.3         c0.6,0.6,1.4,1,2.3,1l29.2,0.1c0,0,0,0,0,0c1.8,0,3.3-1.5,3.3-3.3l0.1-20.9c0-1.8-1.5-3.3-3.3-3.3L1480.8,958.3         C1480.8,958.3,1480.8,958.3,1480.8,958.3z" class="colorffffff svgShape"/><path fill="#5a4ae3" fill-rule="evenodd" d="M1478.4,980.7l14-11c1.6-1.3,4.3-1.2,6,0.1l13.8,11c0.6,0.4,0.9,1,1.1,1.5l0,0.2         c0,1.9-1.5,3.4-3.4,3.4l-29.2-0.1c-1.9,0-3.4-1.5-3.4-3.4l0-0.3C1477.5,981.6,1477.9,981.1,1478.4,980.7L1478.4,980.7z" class="color4b76ba svgShape" clip-rule="evenodd"/><path fill="#fff" d="M1509.9,986.1C1509.9,986.1,1509.9,986.1,1509.9,986.1l-29.2-0.1         c-0.9,0-1.8-0.4-2.5-1c-0.7-0.7-1-1.6-1-2.5l0-0.3l0,0c0.2-0.6,0.6-1.1,1.1-1.5l0,0l14-11c1.7-1.3,4.4-1.3,6.2,0.1l13.8,11         c0.6,0.4,1,1,1.2,1.6l0,0l0,0.3C1513.5,984.5,1511.9,986.1,1509.9,986.1z M1477.5,982.2l0,0.3c0,0.9,0.3,1.7,0.9,2.3         c0.6,0.6,1.4,1,2.3,1l29.2,0.1c0,0,0,0,0,0c1.8,0,3.3-1.5,3.3-3.3l0-0.2c-0.2-0.5-0.6-1.1-1.1-1.5l-13.8-11         c-1.6-1.3-4.2-1.3-5.8-0.1l-14,11C1478,981.2,1477.7,981.7,1477.5,982.2z" class="colorffffff svgShape"/><path fill="#5a4ae3" fill-rule="evenodd" d="M1513.1,960.3c-0.2,0.3-0.4,0.6-0.7,0.8l-14,11c-1.6,1.3-4.3,1.2-6-0.1l-13.8-11         c-0.3-0.3-0.6-0.6-0.8-0.9c0.5-1.2,1.7-2,3.1-2l29.2,0.1C1511.4,958.3,1512.6,959.1,1513.1,960.3L1513.1,960.3z" class="color4b76ba svgShape" clip-rule="evenodd"/><path fill="#fff" d="M1495.4,973.2c-1.1,0-2.3-0.4-3.2-1.1l-13.8-11c-0.3-0.3-0.6-0.6-0.8-0.9l0-0.1         l0-0.1c0.6-1.2,1.8-2,3.2-2c0,0,0,0,0,0l29.2,0.1c1.4,0,2.6,0.8,3.2,2.1l0,0.1l0,0.1c-0.2,0.3-0.4,0.6-0.8,0.8l-14,11         C1497.6,972.9,1496.5,973.2,1495.4,973.2z M1477.9,960.2c0.2,0.3,0.5,0.6,0.7,0.8l13.8,11c1.6,1.3,4.2,1.3,5.8,0.1l14-11         c0.3-0.2,0.5-0.5,0.7-0.7c-0.5-1.1-1.7-1.9-2.9-1.9l-29.2-0.1c0,0,0,0,0,0C1479.6,958.3,1478.4,959,1477.9,960.2z" class="colorffffff svgShape"/><g class="color000000 svgShape"><circle cx="1511.2" cy="959.5" r="8.1" fill="#685bd7" class="colord75b7e svgShape"/><path fill="#fff" d="M1511.2,956.7h-1.8v-1.2c0.5,0,0.9,0,1.2-0.1c0.3-0.1,0.5-0.2,0.7-0.4         c0.2-0.2,0.3-0.5,0.5-0.8h1.1V965h-1.7V956.7z" class="colorffffff svgShape"/></g></g></svg>