<svg xmlns="http://www.w3.org/2000/svg" id="Layer_1" x="0" y="0" enable-background="new 0 0 600 500" version="1.1" viewBox="0 0 600 500" xml:space="preserve"><g id="Secure_Login"><path fill="#d2e4ff" d="M556,249c-6.9,18.9-4.4,84.8-2.1,130.8c1.3,25.2-18.8,46.3-44.1,46.3H97.3c-13.5,0-25.6-8.8-29.4-21.7
						c0-0.1,0-0.2-0.1-0.2c-5.6-19.2-1.3-40,4.5-59.1c5.8-19.2,13.1-40.7,3.9-58.5C69.1,272.8,53.6,265,47.1,251
						c-8.3-17.8-0.8-161.8,57.4-182c30.5-10.6,62.4-10.2,91.4,3c29,13.2,205.8-17.3,261.5-12.1c16.7,1.6,32.9,6.7,48.8,12.1
						c6,2,12.2,4.4,16.2,9.4c7.3,9.3-4.9,51.7-8.5,63c-3.7,11.3,34.1,59.2,36.5,66.6C551.8,215.3,557.5,244.8,556,249z" opacity=".3"/><path fill="#060405" d="M498.8,239.2H496v-1h2.8c0.4,0,0.8,0,1.1-0.1l0.1,1C499.7,239.2,499.2,239.2,498.8,239.2z M492,239.2h-4
						v-1h4V239.2z M484,239.2h-4v-1h4V239.2z M476,239.2h-4v-1h4V239.2z M468,239.2h-4v-1h4V239.2z M460,239.2h-4v-1h4V239.2z
						 M452,239.2h-4v-1h4V239.2z M444,239.2h-4v-1h4V239.2z M436,239.2h-4v-1h4V239.2z M428,239.2h-4v-1h4V239.2z M420,239.2h-4v-1
						h4V239.2z M412,239.2h-4v-1h4V239.2z M404,239.2h-4v-1h4V239.2z M504,237.8l-0.5-0.9c1.1-0.7,2-1.5,2.7-2.6l0.8,0.6
						C506.3,236,505.2,237,504,237.8z M508.7,231l-1-0.2c0.2-1.3,0.1-2,0.1-3.9h1C508.8,228.8,508.9,229.7,508.7,231z M508.8,223h-1
						v-4h1V223z M508.8,215h-1v-4h1V215z M508.8,207h-1v-4h1V207z M508.8,199h-1v-4h1V199z M508.8,191h-1v-4h1V191z M508.8,183h-1
						v-4h1V183z"/><path fill="#060405" d="M431.8,107.8v296.5c0,5.6-2.1,10.7-5.5,14.5c-4,4.5-9.8,7.3-16.3,7.3H244.3c-12.1,0-21.9-9.8-21.9-21.9
								V107.8c0-12.1,9.8-21.9,21.9-21.9h165.6C422,86,431.8,95.7,431.8,107.8z"/><path fill="#fff" d="M244.3,417.1c-7.1,0-12.8-5.8-12.8-12.8V107.8c0-7.1,5.8-12.8,12.8-12.8h165.6c7.1,0,12.8,5.8,12.8,12.8
								v296.5c0,7.1-5.8,12.8-12.8,12.8H244.3z"/><path fill="#060405" d="M369.3,93l-5.4,12.8c-0.7,1.6-2.3,2.7-4.1,2.7h-65.6c-1.8,0-3.4-1.1-4.1-2.7L284.9,93H369.3z"/><path fill="#fff" d="M348.6,101.6h-34.1c-1.2,0-2.2-1-2.2-2.2v-0.8c0-1.2,1-2.2,2.2-2.2h34.1c1.2,0,2.2,1,2.2,2.2v0.8
								C350.8,100.6,349.8,101.6,348.6,101.6z"/><circle cx="305.6" cy="98.9" r="3.5" fill="#fff"/><path fill="#060405" d="M354.8,187.4h-57.2v-24.9c0-15.8,12.8-28.6,28.6-28.6c15.8,0,28.6,12.8,28.6,28.6V187.4z M306,179h40.4
									v-16.5c0-11.2-9-20.2-20.2-20.2c-11.1,0-20.2,9.1-20.2,20.2V179z"/><path fill="#6193f6" d="M365.8,182.9v55.8c0,4.3-3.5,7.8-7.8,7.8h-63.5c-4.3,0-7.8-3.5-7.8-7.8v-55.8c0-4.3,3.5-7.8,7.8-7.8
									h63.5C362.3,175.1,365.8,178.6,365.8,182.9z"/><path fill="#060405" d="M332.9,222.9c0.4,1.5-0.8,3-2.3,3h-8.7c-1.6,0-2.7-1.4-2.3-3l2.4-10.1c-3.1-1.6-5.1-5-4.8-8.8
									c0.4-4.2,3.8-7.7,8-8.2c5.5-0.6,10.1,3.7,10.1,9c0,3.5-1.9,6.5-4.8,8L332.9,222.9z"/><path fill="#d2e4ff" d="M387.6,299.2h-121c-2.7,0-4.9-2.2-4.9-4.9v-23.8c0-2.7,2.2-4.9,4.9-4.9h121c2.7,0,4.9,2.2,4.9,4.9v23.8
								C392.5,297,390.3,299.2,387.6,299.2z"/><path fill="#d2e4ff" d="M387.6,345.1h-121c-2.7,0-4.9-2.2-4.9-4.9v-23.8c0-2.7,2.2-4.9,4.9-4.9h121c2.7,0,4.9,2.2,4.9,4.9v23.8
								C392.5,342.9,390.3,345.1,387.6,345.1z"/><path fill="#ff7545" d="M362.5,391h-70.9c-2.7,0-4.9-2.2-4.9-4.9v-23.8c0-2.7,2.2-4.9,4.9-4.9h70.9c2.7,0,4.9,2.2,4.9,4.9v23.8
								C367.5,388.8,365.3,391,362.5,391z"/><path fill="#fff" d="M290.8,330l-4.2-1.7l4.3-1.7c0.8-0.5,1.1-1.4,0.6-2.4c-0.7-1.1-1.9-1-2.3-0.6c-0.1,0-0.2,0.1-3.6,2.9
									c0.7-4.3,0.7-4.5,0.7-4.5c0-0.5-0.2-0.9-0.5-1.2c-0.7-0.6-1.7-0.6-2.4,0c-0.3,0.3-0.5,0.7-0.5,1.2c0,0.1,0,0.2,0.7,4.5
									c-3.4-2.8-3.5-2.8-3.6-2.9c-0.8-0.4-1.7-0.3-2.3,0.6c-0.4,0.7-0.3,1.8,0.6,2.4l4.2,1.7l-4.3,1.7c-1,0.5-1,1.6-0.6,2.3
									c0.6,0.9,1.6,1,2.3,0.7c0.1,0,0.2-0.1,3.6-2.9c-0.7,4.3-0.7,4.5-0.7,4.5c0,1,0.8,1.7,1.7,1.7c0.9,0,1.7-0.7,1.7-1.7
									c0-0.1,0-0.2-0.7-4.5c3.4,2.8,3.5,2.8,3.6,2.9c0.7,0.3,1.7,0.2,2.3-0.7C291.9,331.5,291.7,330.5,290.8,330z"/><path fill="#fff" d="M312.1,330l-4.2-1.7l4.3-1.7c0.8-0.5,1.1-1.4,0.6-2.4c-0.7-1.1-1.9-1-2.3-0.6c-0.1,0-0.2,0.1-3.6,2.9
									c0.7-4.3,0.7-4.5,0.7-4.5c0-0.5-0.2-0.9-0.5-1.2c-0.7-0.6-1.7-0.6-2.4,0c-0.3,0.3-0.5,0.7-0.5,1.2c0,0.1,0,0.2,0.7,4.5
									c-3.4-2.8-3.5-2.8-3.6-2.9c-0.8-0.4-1.7-0.3-2.3,0.6c-0.4,0.7-0.3,1.8,0.6,2.4l4.2,1.7l-4.3,1.7c-1,0.5-1,1.6-0.6,2.3
									c0.6,0.9,1.6,1,2.3,0.7c0.1,0,0.2-0.1,3.6-2.9c-0.7,4.3-0.7,4.5-0.7,4.5c0,1,0.8,1.7,1.7,1.7c0.9,0,1.7-0.7,1.7-1.7
									c0-0.1,0-0.2-0.7-4.5c3.4,2.8,3.5,2.8,3.6,2.9c0.7,0.3,1.7,0.2,2.3-0.7C313.2,331.5,313,330.5,312.1,330z"/><path fill="#fff" d="M333.4,330l-4.2-1.7l4.3-1.7c0.8-0.5,1.1-1.4,0.6-2.4c-0.7-1.1-1.9-1-2.3-0.6c-0.1,0-0.2,0.1-3.6,2.9
									c0.7-4.3,0.7-4.5,0.7-4.5c0-0.5-0.2-0.9-0.5-1.2c-0.7-0.6-1.7-0.6-2.4,0c-0.3,0.3-0.5,0.7-0.5,1.2c0,0.1,0,0.2,0.7,4.5
									c-3.4-2.8-3.5-2.8-3.6-2.9c-0.8-0.4-1.7-0.3-2.3,0.6c-0.4,0.7-0.3,1.8,0.6,2.4l4.2,1.7l-4.3,1.7c-1,0.5-1,1.6-0.6,2.3
									c0.6,0.9,1.6,1,2.3,0.7c0.1,0,0.2-0.1,3.6-2.9c-0.7,4.3-0.7,4.5-0.7,4.5c0,1,0.8,1.7,1.7,1.7c0.9,0,1.7-0.7,1.7-1.7
									c0-0.1,0-0.2-0.7-4.5c3.4,2.8,3.5,2.8,3.6,2.9c0.7,0.3,1.7,0.2,2.3-0.7C334.5,331.5,334.3,330.5,333.4,330z"/><path fill="#fff" d="M354.7,330l-4.2-1.7l4.3-1.7c0.8-0.5,1.1-1.4,0.6-2.4c-0.7-1.1-1.9-1-2.3-0.6c-0.1,0-0.2,0.1-3.6,2.9
									c0.7-4.3,0.7-4.5,0.7-4.5c0-0.5-0.2-0.9-0.5-1.2c-0.7-0.6-1.7-0.6-2.4,0c-0.3,0.3-0.5,0.7-0.5,1.2c0,0.1,0,0.2,0.7,4.5
									c-3.4-2.8-3.5-2.8-3.6-2.9c-0.3-0.2-0.5-0.2-0.8-0.2c-0.6,0-1.1,0.3-1.5,0.9c-0.2,0.3-0.2,0.6-0.2,0.9
									c0,0.7,0.3,1.1,0.9,1.5l4.2,1.7L342,330c-1,0.5-1,1.6-0.6,2.3c0.6,0.9,1.6,1,2.3,0.7c0.1,0,0.2-0.1,3.6-2.9
									c-0.7,4.3-0.7,4.5-0.7,4.5c0,1,0.8,1.7,1.7,1.7c0.9,0,1.7-0.7,1.7-1.7c0-0.1,0-0.2-0.7-4.5c3.4,2.8,3.5,2.8,3.6,2.9
									c0.7,0.3,1.7,0.2,2.3-0.7C355.8,331.5,355.6,330.5,354.7,330z"/><path fill="#fff" d="M376,330l-4.2-1.7l4.3-1.7c0.8-0.5,1.1-1.4,0.6-2.4c-0.7-1.1-1.9-1-2.3-0.6c-0.1,0-0.2,0.1-3.6,2.9
									c0.7-4.3,0.7-4.5,0.7-4.5c0-0.5-0.2-0.9-0.5-1.2c-0.7-0.6-1.7-0.6-2.4,0c-0.3,0.3-0.5,0.7-0.5,1.2c0,0.1,0,0.2,0.7,4.5
									c-3.4-2.8-3.5-2.8-3.6-2.9c-0.8-0.4-1.7-0.3-2.3,0.6c-0.4,0.7-0.3,1.8,0.6,2.4l4.2,1.7l-4.3,1.7c-1,0.5-1,1.6-0.6,2.3
									c0.6,0.9,1.6,1,2.3,0.7c0.1,0,0.2-0.1,3.6-2.9c-0.7,4.3-0.7,4.5-0.7,4.5c0,1,0.8,1.7,1.7,1.7c0.9,0,1.7-0.7,1.7-1.7
									c0-0.1,0-0.2-0.7-4.5c3.4,2.8,3.5,2.8,3.6,2.9c0.7,0.3,1.7,0.2,2.3-0.7C377.1,331.5,376.9,330.5,376,330z"/><g><path fill="#fff" d="M290.8,284.1l-4.2-1.7l4.3-1.7c0.8-0.5,1.1-1.4,0.6-2.4c-0.7-1.1-1.9-1-2.3-0.6c-0.1,0-0.2,0.1-3.6,2.9
									c0.7-4.3,0.7-4.5,0.7-4.5c0-0.5-0.2-0.9-0.5-1.2c-0.7-0.6-1.7-0.6-2.4,0c-0.3,0.3-0.5,0.7-0.5,1.2c0,0.1,0,0.2,0.7,4.5
									c-3.4-2.8-3.5-2.8-3.6-2.9c-0.8-0.4-1.7-0.3-2.3,0.6c-0.4,0.7-0.3,1.8,0.6,2.4l4.2,1.7l-4.3,1.7c-1,0.5-1,1.6-0.6,2.3
									c0.6,0.9,1.6,1,2.3,0.7c0.1,0,0.2-0.1,3.6-2.9c-0.7,4.3-0.7,4.5-0.7,4.5c0,1,0.8,1.7,1.7,1.7c0.9,0,1.7-0.7,1.7-1.7
									c0-0.1,0-0.2-0.7-4.5c3.4,2.8,3.5,2.8,3.6,2.9c0.7,0.3,1.7,0.2,2.3-0.7C291.9,285.6,291.7,284.6,290.8,284.1z"/><path fill="#fff" d="M312.1,284.1l-4.2-1.7l4.3-1.7c0.8-0.5,1.1-1.4,0.6-2.4c-0.7-1.1-1.9-1-2.3-0.6c-0.1,0-0.2,0.1-3.6,2.9
									c0.7-4.3,0.7-4.5,0.7-4.5c0-1.4-1.8-2.3-2.9-1.2c-0.3,0.3-0.5,0.7-0.5,1.2c0,0.1,0,0.2,0.7,4.5c-3.4-2.8-3.5-2.8-3.6-2.9
									c-0.8-0.4-1.7-0.3-2.3,0.6c-0.4,0.7-0.3,1.8,0.6,2.4l4.2,1.7l-4.3,1.7c-1,0.5-1,1.6-0.6,2.3c0.6,0.9,1.6,1,2.3,0.7
									c0.1,0,0.2-0.1,3.6-2.9c-0.7,4.3-0.7,4.5-0.7,4.5c0,1,0.8,1.7,1.7,1.7c0.9,0,1.7-0.7,1.7-1.7c0-0.1,0-0.2-0.7-4.5
									c3.4,2.8,3.5,2.8,3.6,2.9c0.7,0.3,1.7,0.2,2.3-0.7C313.2,285.6,313,284.6,312.1,284.1z"/><path fill="#fff" d="M333.4,284.1l-4.2-1.7l4.3-1.7c0.5-0.3,0.8-0.8,0.8-1.5c0-1.5-1.8-2.2-2.5-1.5c-0.1,0-0.2,0.1-3.6,2.9
									c0.7-4.3,0.7-4.5,0.7-4.5c0-0.5-0.2-0.9-0.5-1.2c-0.7-0.6-1.7-0.6-2.4,0c-0.3,0.3-0.5,0.7-0.5,1.2c0,0.1,0,0.2,0.7,4.5
									c-3.4-2.8-3.5-2.8-3.6-2.9c-0.8-0.4-1.7-0.3-2.3,0.6c-0.4,0.7-0.3,1.8,0.6,2.4l4.2,1.7l-4.3,1.7c-1,0.5-1,1.6-0.6,2.3
									c0.6,0.9,1.6,1,2.3,0.7c0.1,0,0.2-0.1,3.6-2.9c-0.7,4.3-0.7,4.5-0.7,4.5c0,1,0.8,1.7,1.7,1.7c0.9,0,1.7-0.7,1.7-1.7
									c0-0.1,0-0.2-0.7-4.5c3.4,2.8,3.5,2.8,3.6,2.9c0.7,0.3,1.7,0.2,2.3-0.7C334.5,285.6,334.3,284.6,333.4,284.1z"/><path fill="#fff" d="M354.7,284.1l-4.2-1.7l4.3-1.7c0.8-0.5,1.1-1.4,0.6-2.4c-0.7-1.1-1.9-1-2.3-0.6c-0.1,0-0.2,0.1-3.6,2.9
									c0.7-4.3,0.7-4.5,0.7-4.5c0-0.5-0.2-0.9-0.5-1.2c-0.7-0.6-1.7-0.6-2.4,0c-0.3,0.3-0.5,0.7-0.5,1.2c0,0.1,0,0.2,0.7,4.5
									c-3.4-2.8-3.5-2.8-3.6-2.9c-0.8-0.4-1.7-0.3-2.3,0.6c-0.4,0.7-0.3,1.8,0.6,2.4l4.2,1.7l-4.3,1.7c-1,0.5-1,1.6-0.6,2.3
									c0.6,0.9,1.6,1,2.3,0.7c0.1,0,0.2-0.1,3.6-2.9c-0.7,4.3-0.7,4.5-0.7,4.5c0,1,0.8,1.7,1.7,1.7c0.9,0,1.7-0.7,1.7-1.7
									c0-0.1,0-0.2-0.7-4.5c3.4,2.8,3.5,2.8,3.6,2.9c0.7,0.3,1.7,0.2,2.3-0.7C355.8,285.6,355.6,284.6,354.7,284.1z"/><path fill="#fff" d="M376,284.1l-4.2-1.7l4.3-1.7c0.8-0.5,1.1-1.4,0.6-2.4c-0.7-1.1-1.9-1-2.3-0.6c-0.1,0-0.2,0.1-3.6,2.9
									c0.7-4.3,0.7-4.5,0.7-4.5c0-0.5-0.2-0.9-0.5-1.2c-0.7-0.6-1.7-0.6-2.4,0c-0.3,0.3-0.5,0.7-0.5,1.2c0,0.1,0,0.2,0.7,4.5
									c-3.4-2.8-3.5-2.8-3.6-2.9c-0.8-0.4-1.7-0.3-2.3,0.6c-0.4,0.7-0.3,1.8,0.6,2.4l4.2,1.7l-4.3,1.7c-1,0.5-1,1.6-0.6,2.3
									c0.6,0.9,1.6,1,2.3,0.7c0.1,0,0.2-0.1,3.6-2.9c-0.7,4.3-0.7,4.5-0.7,4.5c0,1,0.8,1.7,1.7,1.7c0.9,0,1.7-0.7,1.7-1.7
									c0-0.1,0-0.2-0.7-4.5c3.4,2.8,3.5,2.8,3.6,2.9c0.7,0.3,1.7,0.2,2.3-0.7C377.1,285.6,376.9,284.6,376,284.1z"/></g><g><path fill="#fff" d="M306.6,378.7h-4.7v-8.3c0-0.3-0.1-0.5-0.3-0.7c-0.4-0.4-1-0.4-1.3,0c-0.2,0.2-0.3,0.4-0.3,0.7v9
								c0,0.3,0.1,0.6,0.4,0.9s0.5,0.4,0.9,0.4h5.4c0.3,0,0.5-0.1,0.7-0.3c0.2-0.2,0.3-0.4,0.3-0.7c0-0.3-0.1-0.5-0.3-0.7
								C307.1,378.8,306.9,378.7,306.6,378.7z"/><path fill="#fff" d="M317.3,370.1c-0.8-0.5-1.8-0.7-2.9-0.7c-1.1,0-2.1,0.2-2.9,0.7c-0.8,0.5-1.5,1.2-1.9,2
								c-0.4,0.8-0.7,1.8-0.7,2.9c0,1.1,0.3,2.1,0.7,2.9c0.5,0.9,1.1,1.5,1.9,2c0.8,0.5,1.8,0.7,2.9,0.7s2.1-0.2,2.9-0.7
								c0.8-0.5,1.5-1.2,1.9-2c0.5-0.9,0.7-1.8,0.7-2.9c0-1.1-0.3-2.1-0.7-2.9C318.8,371.3,318.1,370.6,317.3,370.1z M314.4,378.9
								c-0.8,0-1.4-0.2-2-0.5c-0.5-0.3-1-0.8-1.3-1.4c-0.3-0.6-0.4-1.3-0.4-2c0-0.7,0.1-1.4,0.4-2c0.3-0.6,0.7-1,1.3-1.4
								c0.5-0.3,1.2-0.5,2-0.5c0.8,0,1.4,0.2,2,0.5c0.5,0.3,1,0.8,1.3,1.4c0.3,0.6,0.4,1.3,0.4,2c0,0.7-0.1,1.4-0.4,2
								c-0.3,0.6-0.7,1-1.3,1.4C315.8,378.7,315.2,378.9,314.4,378.9z"/><path fill="#fff" d="M330.7,374.3h-3c-0.2,0-0.4,0.1-0.6,0.3c-0.2,0.2-0.3,0.4-0.3,0.6c0,0.2,0.1,0.4,0.3,0.6
								c0.2,0.2,0.4,0.3,0.6,0.3h2.2v2.3c-0.7,0.4-1.5,0.6-2.4,0.6c-0.8,0-1.5-0.2-2.1-0.5c-0.6-0.3-1-0.8-1.3-1.4
								c-0.3-0.6-0.5-1.2-0.5-2c0-0.8,0.2-1.5,0.5-2.1c0.3-0.6,0.8-1,1.3-1.3c0.6-0.3,1.2-0.5,1.9-0.5c0.5,0,1,0.1,1.5,0.2
								c0.5,0.1,0.9,0.3,1.4,0.6c0.4,0.2,0.8,0.1,1.1-0.2c0.2-0.2,0.2-0.4,0.2-0.6c0-0.2,0-0.3-0.1-0.5c-0.1-0.1-0.2-0.2-0.3-0.3
								c-0.6-0.4-1.1-0.6-1.8-0.8c-0.6-0.2-1.3-0.3-2.1-0.3c-1,0-2,0.2-2.8,0.7c-0.8,0.5-1.5,1.2-2,2c-0.5,0.9-0.7,1.9-0.7,3
								c0,1.1,0.2,2.1,0.7,2.9c0.5,0.9,1.1,1.5,2,2c0.8,0.5,1.8,0.7,2.9,0.7c1.2,0,2.4-0.3,3.6-0.9c0.2-0.1,0.4-0.3,0.5-0.5
								c0.1-0.2,0.2-0.4,0.2-0.7v-3.4c0-0.3-0.1-0.5-0.3-0.7S331,374.3,330.7,374.3z"/><path fill="#fff" d="M339.6,369.7c-0.2,0.2-0.3,0.4-0.3,0.7v9.3c0,0.3,0.1,0.5,0.3,0.7c0.2,0.2,0.4,0.3,0.7,0.3
								c0.3,0,0.5-0.1,0.7-0.3c0.2-0.2,0.3-0.4,0.3-0.7v-9.3c0-0.3-0.1-0.5-0.3-0.7C340.6,369.3,340,369.4,339.6,369.7z"/><path fill="#fff" d="M353.8,369.7c-0.4-0.4-1-0.4-1.3,0c-0.2,0.2-0.3,0.4-0.3,0.7v7.3l-5.3-7.7c-0.3-0.4-0.6-0.6-1-0.6h-0.2
								c-0.3,0-0.6,0.1-0.9,0.4c-0.2,0.2-0.4,0.5-0.4,0.9v9c0,0.3,0.1,0.5,0.3,0.7c0.4,0.4,1,0.4,1.3,0c0.2-0.2,0.3-0.4,0.3-0.7
								v-7.3l5.4,7.8c0.1,0.2,0.3,0.3,0.4,0.4c0.2,0.1,0.4,0.1,0.6,0.1h0.2c0.3,0,0.6-0.1,0.9-0.4c0.2-0.2,0.4-0.5,0.4-0.9v-9
								C354.1,370.1,354,369.9,353.8,369.7z"/></g><g opacity=".05"><path d="M431.8,308.8v95.5c0,5.6-2.1,10.7-5.5,14.5c-26.6-23.7-37-59.7-42-79.7c-1.2-4.9,2-9.7,6.9-10.6
						C409.6,325.3,422.8,317,431.8,308.8z"/></g><g><path fill="#6193f6" d="M505.3,341.4c-5.5,21.8-17.9,64.2-54.1,83.6c-2.2,1.2-4.9,1.2-7.1,0c-36.2-19.4-48.6-61.8-54.1-83.6
							c-1.1-4.4,1.8-8.8,6.3-9.6c23.7-4.1,37.9-17.4,45.1-26.7c3.2-4.1,9.3-4.1,12.5,0c7.3,9.4,21.4,22.6,45.1,26.7
							C503.5,332.5,506.4,336.9,505.3,341.4z"/><path fill="#fff" d="M447.6,412.2c-27.2-15.2-38.3-46.4-44.3-69.5c22-4.4,36-16.2,44.3-26.1c8.3,10,22.3,21.7,44.3,26.1
							C485.9,365.8,474.8,396.9,447.6,412.2z"/><path fill="#060405" d="M438,376.9l-6.6-6.6c-1.2-1.2-1.2-3,0-4.2c1.2-1.2,3-1.2,4.2,0l4.5,4.5l19.6-19.6c1.2-1.2,3-1.2,4.2,0
								c1.2,1.2,1.2,3,0,4.2l-21.7,21.7C441,378,439.1,378,438,376.9z"/></g><g><path fill="#6193f6" d="M151.9,424.2v-3.6h-21.5c-0.3,7-0.8,20.1-1,20.1h35C165.6,429.2,151.9,424.2,151.9,424.2z"/><path fill="#060405" d="M163.9,435.7c0.5,1.5,0.7,3.2,0.5,5h-35c0.1,0,0.2-2.1,0.3-5H163.9z"/><path fill="#6193f6" d="M74.1,424.2v-3.6H52.6c-0.3,7-0.8,20.1-1,20.1h35C87.7,429.2,74.1,424.2,74.1,424.2z"/><path fill="#060405" d="M86.1,435.7c0.5,1.5,0.7,3.2,0.5,5h-35c0.1,0,0.2-2.1,0.3-5H86.1z"/><path fill="#060405" d="M51.6,424.3c0,1.7,25.2,1.7,25.2,0L108,321.4l21.1,101.6c0,1.8,25.1,1.8,25.1,0l-10.3-149H74.1
									L51.6,424.3z"/><path fill="#fff" d="M210.4,217.3c0,0,1.4,4.8,0.3,8.5c-1.1,3.7-10.1,3.2-10.1,3.2s-38,30.5-56.6,26.2
									c-11.3-2.6-21.2-33.6-21.2-33.6l29.4-10.9l7,15.9l40-11.1c0,0-0.1-9.3,2.8-7.7c2.7,1.6,1.3,5.1,1.3,5.3
									c0.3-0.1,14.9-6.2,16.4-2.5C221.1,214.5,210.4,217.3,210.4,217.3z"/><path fill="#060405" d="M147.9,256.2c-1.4,0-2.8-0.1-4.1-0.4c-11.4-2.7-21.2-32.6-21.6-33.9c-0.1-0.3,0.1-0.5,0.3-0.6
									l29.4-10.9c0.2-0.1,0.5,0,0.6,0.3l6.8,15.5l39.2-10.8c0-1.7,0.2-6.8,1.9-7.8c0.3-0.2,0.9-0.3,1.6,0.1
									c2.2,1.2,2.1,3.6,1.8,4.9c5-2,14.7-5.2,16.1-1.8c0.3,0.7,0.3,1.4-0.1,2.1c-1.3,2.6-7.1,4.5-8.8,5c0.3,1.3,1.1,5.2,0.2,8.3
									c-1.1,3.7-9.1,3.6-10.5,3.5C198,231.7,166.9,256.2,147.9,256.2z M123.4,222c1.3,3.8,10.6,30.4,20.7,32.8
									c18.2,4.2,55.8-25.8,56.2-26.1c0.1-0.1,0.2-0.1,0.3-0.1c2.4,0.1,8.8-0.1,9.6-2.8c1-3.5-0.3-8.2-0.3-8.2c0-0.1,0-0.3,0-0.4
									c0.1-0.1,0.2-0.2,0.3-0.2c2-0.5,7.6-2.4,8.7-4.6c0.2-0.4,0.2-0.8,0.1-1.3c-0.9-2.1-8.8-0.1-15.7,2.7c-0.2,0.1-0.4,0-0.6-0.1
									c-0.1-0.1-0.2-0.3-0.1-0.5c0.1-0.3,1.3-3.4-1-4.7c-0.3-0.2-0.5-0.1-0.6-0.1c-1,0.6-1.5,4.7-1.4,7.4c0,0.2-0.1,0.4-0.4,0.5
									l-40,11.1c-0.2,0.1-0.5-0.1-0.6-0.3l-6.8-15.5L123.4,222z"/><path fill="#b580d8" d="M129.4,175.5c0,0,19.8,3.5,24.9,19.2c1.4,4.3,6.2,27.2,6.2,27.2l-34.7,5.5L129.4,175.5z"/><path fill="#060405" d="M145.7,225.7C145.7,225.7,145.7,225.7,145.7,225.7c-0.3,0-0.5-0.2-0.5-0.5c0-4.4-0.3-8.9-0.9-13.3
									c0-0.3,0.2-0.5,0.4-0.6c0.3,0,0.5,0.2,0.6,0.4c0.6,4.4,0.9,9,0.9,13.4C146.2,225.5,146,225.7,145.7,225.7z"/><path fill="#b580d8" d="M71.2,177.9c4.8-8,58.1-9.4,67.3,3.2c9.5,13,7.4,99.8,7.4,99.8c0.7,8.8-77.3,9.2-78,0.4
									C67.9,281.3,66.3,186.1,71.2,177.9z"/><path fill="#fff" d="M100.4,283.1h18.6c0.5,0,1-0.3,1.2-0.8l13.7-28.1c0.4-0.9-0.2-2-1.2-2h-18.6c-0.5,0-1,0.3-1.2,0.8
									l-13.7,28.1C98.8,282.1,99.4,283.1,100.4,283.1z"/><path fill="#060405" d="M119.1,283.6h-18.6c-0.6,0-1.2-0.3-1.6-0.9c-0.3-0.5-0.4-1.2-0.1-1.8l13.7-28.1c0.3-0.6,1-1,1.7-1h18.6
									c0.6,0,1.2,0.3,1.6,0.9c0.3,0.5,0.4,1.2,0.1,1.8l-13.7,28.1C120.4,283.2,119.8,283.6,119.1,283.6z M114.1,252.8
									c-0.3,0-0.6,0.2-0.8,0.5l-13.7,28.1c-0.1,0.3-0.1,0.6,0,0.8c0.2,0.3,0.4,0.4,0.7,0.4h18.6c0.3,0,0.6-0.2,0.8-0.5l13.7-28.1
									c0.1-0.3,0.1-0.6,0-0.8c-0.2-0.3-0.4-0.4-0.7-0.4H114.1z"/><g><path fill="#fff" d="M44.2,234.3c0,16.9,50.8,34,50.8,34s11.5,16.8,21.1,8.7c9.6-8.2-8.7-12.6-8.7-12.6l2.5-5.1
									c-0.1-3-7.7,1.1-7.7,1.1l-31.9-28.2l7.4-12.8l-24.9-11.4C52.8,207.9,44.3,227.7,44.2,234.3z"/><path fill="#060405" d="M110.4,279.7c-0.4,0-0.8,0-1.3-0.1c-7.2-1-13.5-9.6-14.4-10.9c-3.7-1.3-51-17.8-51-34.5
									c0-6.6,8.2-25.8,8.6-26.6c0.1-0.1,0.2-0.2,0.3-0.3c0.1,0,0.3,0,0.4,0l24.9,11.4c0.1,0.1,0.2,0.2,0.3,0.3s0,0.3,0,0.4
									L70.9,232l31.3,27.7c1.4-0.7,5.7-2.8,7.4-1.8c0.3,0.2,0.7,0.6,0.7,1.3c0,0.1,0,0.2-0.1,0.2l-2.2,4.6
									c2.3,0.6,10.2,3.1,11.2,7.4c0.5,1.9-0.5,3.9-2.8,5.9C114.6,278.9,112.6,279.7,110.4,279.7z M53.1,208.6
									c-1.3,3-8.3,19.9-8.3,25.7l0,0c0,16.3,49.9,33.4,50.4,33.6c0.1,0,0.2,0.1,0.3,0.2c0.1,0.1,6.7,9.7,13.8,10.6
									c2.4,0.3,4.6-0.4,6.5-2c2-1.7,2.9-3.4,2.5-4.9c-1-4.4-11-6.8-11.1-6.8c-0.1,0-0.3-0.1-0.3-0.3c-0.1-0.1-0.1-0.3,0-0.4l2.4-5
									c0-0.2-0.1-0.3-0.2-0.4c-1-0.6-4.5,0.8-6.7,2c-0.2,0.1-0.4,0.1-0.6-0.1L70,232.5c-0.2-0.2-0.2-0.4-0.1-0.6l7.1-12.4
									L53.1,208.6z M44.3,234.3L44.3,234.3L44.3,234.3z"/></g><g><path fill="#b580d8" d="M74.3,175.6c-0.6,0.5-7.3,3-12.6,11.2c-3.8,5.9-11.7,22.4-11.7,22.4c-2.3,2.8,22.3,21.5,25.1,17.9
									c0,0,11.1-17.2,11.5-26.4C87.2,188.7,74.3,175.6,74.3,175.6z"/></g><g><path fill="#060405" d="M73.9,227.9c-0.1,0-0.2,0-0.2,0c-5.1-0.3-20.3-11-23.6-16.5c-0.1-0.2-0.1-0.5,0.2-0.7
									c0.2-0.1,0.5-0.1,0.7,0.2c3.1,5.2,18.1,15.7,22.8,16c0.4,0,0.7,0,0.8-0.2c0.1-0.1,11-17.2,11.4-26.2c0-0.3,0.2-0.5,0.5-0.5
									c0.3,0,0.5,0.2,0.5,0.5c-0.4,9.3-11.1,26-11.6,26.7C75,227.7,74.5,227.9,73.9,227.9z"/></g><g><path fill="#fff" d="M113.9,163.5c0,0,2.4,4.8,5.2,9c2.1,3.2-1.8,9.3-5.4,11.1c-5.8,3-17-10.6-17-10.6l-0.5-30.1
									L113.9,163.5z"/><path fill="#060405" d="M112,184.5c-6.3,0-15.7-11.8-16.2-12.4l-0.1-0.1v-30.4l18.6,21.7c0,0,2.5,4.8,5.2,9
									c2.3,3.5-1.9,9.9-5.5,11.8C113.4,184.3,112.7,184.5,112,184.5z M96.7,171.7c3.3,4.1,12.4,13.8,16.8,11.5
									c3.3-1.7,7-7.5,5.2-10.4c-2.6-4-4.9-8.5-5.2-9l-16.8-19.5V171.7z"/><path fill="#fff" d="M96.9,139c0.3,0.4,3,28.3,19.8,26.5s12.4-36.6,4.9-44.3s-22.8-0.8-22.8-0.8l-5,12.1L96.9,139z"/><path fill="#060405" d="M115.2,166c-9.2,0-15.7-9.2-18.6-26c-0.1-0.4-0.1-0.7-0.1-0.8l-3.2-6.8l5.2-12.5l0.2-0.1
									c0.6-0.3,15.7-7,23.4,0.9c5.6,5.7,9.1,24.6,5.1,36c-2,5.5-5.5,8.7-10.3,9.2C116.3,166,115.7,166,115.2,166z M97.4,138.8
									c0.1,0.1,0.1,0.3,0.2,1.1c2.9,17.5,9.5,26.2,19.1,25.1c4.4-0.5,7.6-3.4,9.5-8.6c3.9-10.9,0.5-29.5-4.8-34.9
									c-6.8-6.9-20.4-1.5-22.1-0.8l-4.9,11.7L97.4,138.8z"/><ellipse cx="110.9" cy="139.2" fill="#060405" rx="1.2" ry="1.7" transform="rotate(-2.204 110.924 139.23) scale(1.00004)"/><ellipse cx="122" cy="139.1" fill="#060405" rx="1.2" ry="1.7" transform="rotate(-2.204 122.04 139.137) scale(1.00004)"/><path fill="#060405" d="M116.5,149.8l-0.6-0.8c0.4-0.4,1-0.4,1.6-0.5c0.3-0.1,0.6-0.2,0.7-0.4c0-0.2-0.2-0.5-0.5-0.7
									c-1.7-1.8-2.4-4.5-1.9-6.8l1,0.2c-0.5,2.1,0.1,4.4,1.6,5.9c0.4,0.4,0.9,0.9,0.8,1.6c-0.1,0.6-0.7,1-1.5,1.2
									C117.2,149.6,116.8,149.6,116.5,149.8z"/><path fill="#060405" d="M114.7,158.4c-0.5,0-1-0.1-1.5-0.3c-0.9-0.4-1.6-1.2-2-2.1l0.9-0.4c0.3,0.7,0.8,1.2,1.5,1.5
									c0.7,0.3,1.4,0.3,2.1,0l0.4,0.9C115.6,158.3,115.1,158.4,114.7,158.4z"/><g><path fill="#060405" d="M131.4,125.8c-0.7,0.4-1.4,0.8-2.3,1.1c-6.6,2.2-24.5-1.9-25.1,0.6c-0.5,2.5-1.6,17.5-2.8,15.7
								c-2.2-3.5-3-9.2-3.1,0.7c0.1,3.7-1,9.4-1,9.4c-9.6-0.3-18.8-22.8-9.4-24.3c0,0-2.9-4.5-1.1-8.5c1.8-4,14.4-26.1,38.7-9.1
								c0.5-0.6,4.8-5.7,6.6-2.1C133.5,112.6,136.3,122.7,131.4,125.8z"/></g></g></g><g><path fill="#bdd6ff" d="M556,108.4v77.2c0,5.6-4.5,10.1-10.1,10.1h-84.7c-5.6,0-10.1-4.5-10.1-10.1v-77.2
						c0-5.6,4.5-10.1,10.1-10.1h84.7C551.5,98.4,556,102.9,556,108.4z"/></g><g><path fill="#fff" d="M482.3,160.7v13.2c0,1.5-1.2,2.8-2.8,2.8h-9.2c-1.5,0-2.8-1.2-2.8-2.8v-13.2c0-1.5,1.2-2.8,2.8-2.8h9.2
							C481,158,482.3,159.2,482.3,160.7z"/><path fill="#fff" d="M501.4,160.7v13.2c0,1.5-1.2,2.8-2.8,2.8h-9.2c-1.5,0-2.8-1.2-2.8-2.8v-13.2c0-1.5,1.2-2.8,2.8-2.8h9.2
							C500.1,158,501.4,159.2,501.4,160.7z"/><path fill="#fff" d="M520.5,160.7v13.2c0,1.5-1.2,2.8-2.8,2.8h-9.2c-1.5,0-2.8-1.2-2.8-2.8v-13.2c0-1.5,1.2-2.8,2.8-2.8h9.2
							C519.3,158,520.5,159.2,520.5,160.7z"/><path fill="#fff" d="M539.6,160.7v13.2c0,1.5-1.2,2.8-2.8,2.8h-9.2c-1.5,0-2.8-1.2-2.8-2.8v-13.2c0-1.5,1.2-2.8,2.8-2.8h9.2
							C538.4,158,539.6,159.2,539.6,160.7z"/></g><g><path d="M477.5,167.9l-1.4-0.6l1.5-0.6c0.3-0.2,0.5-0.6,0.3-1.1c-0.3-0.5-0.9-0.4-1.1-0.3c0,0-0.1,0-1.2,1
						c0.2-1.5,0.2-1.5,0.2-1.6c0-0.2-0.1-0.4-0.2-0.6c-0.3-0.3-0.8-0.3-1.1,0c-0.2,0.2-0.2,0.3-0.2,0.6c0,0,0,0.1,0.2,1.6
						c-1.2-0.9-1.2-1-1.2-1c-0.4-0.2-0.8-0.1-1.1,0.3c-0.2,0.3-0.2,0.9,0.3,1.1l1.4,0.6l-1.5,0.6c-0.4,0.2-0.5,0.7-0.3,1.1
						c0.3,0.4,0.7,0.5,1.1,0.3c0,0,0.1,0,1.3-1c-0.2,1.5-0.2,1.5-0.2,1.6c0,0.4,0.4,0.8,0.8,0.8c0.4,0,0.8-0.3,0.8-0.8
						c0,0,0-0.1-0.2-1.6c1.2,0.9,1.2,1,1.3,1c0.3,0.2,0.8,0.1,1.1-0.3C478,168.6,477.9,168.1,477.5,167.9z"/></g><g><path d="M496.6,167.9l-1.4-0.6l1.5-0.6c0.2-0.2,0.4-0.4,0.4-0.7c0-0.1,0-0.3-0.1-0.4c-0.3-0.5-0.9-0.4-1.1-0.3c0,0-0.1,0-1.2,1
						c0.2-1.5,0.2-1.5,0.2-1.6c0-0.2-0.1-0.4-0.2-0.6c-0.3-0.3-0.8-0.3-1.1,0c-0.2,0.2-0.2,0.3-0.2,0.6c0,0,0,0.1,0.2,1.6
						c-1.2-0.9-1.2-1-1.2-1c-0.4-0.2-0.8-0.1-1.1,0.3c-0.2,0.3-0.2,0.9,0.3,1.1l1.4,0.6l-1.5,0.6c-0.4,0.2-0.5,0.7-0.3,1.1
						c0.3,0.4,0.7,0.5,1.1,0.3c0,0,0.1,0,1.3-1c-0.2,1.5-0.2,1.5-0.2,1.6c0,0.4,0.4,0.8,0.8,0.8c0.4,0,0.8-0.3,0.8-0.8
						c0,0,0-0.1-0.2-1.6c1.2,0.9,1.2,1,1.3,1c0.3,0.2,0.8,0.1,1.1-0.3C497.1,168.6,497.1,168.1,496.6,167.9z"/></g><g><path d="M515.7,167.9l-1.4-0.6l1.5-0.6c0.3-0.2,0.5-0.6,0.3-1.1c-0.3-0.5-0.9-0.4-1.1-0.3c0,0-0.1,0-1.2,1
						c0.2-1.5,0.2-1.5,0.2-1.6c0-0.2-0.1-0.4-0.2-0.6c-0.3-0.3-0.8-0.3-1.1,0c-0.2,0.2-0.2,0.3-0.2,0.6c0,0,0,0.1,0.2,1.6
						c-1.2-0.9-1.2-1-1.2-1c-0.4-0.2-0.8-0.1-1.1,0.3c-0.2,0.3-0.2,0.9,0.3,1.1l1.4,0.6l-1.5,0.6c-0.4,0.2-0.5,0.7-0.3,1.1
						c0.3,0.4,0.7,0.5,1.1,0.3c0,0,0.1,0,1.3-1c-0.2,1.5-0.2,1.5-0.2,1.6c0,0.4,0.4,0.8,0.8,0.8c0.4,0,0.8-0.3,0.8-0.8
						c0,0,0-0.1-0.2-1.6c1.2,0.9,1.2,1,1.3,1c0.3,0.2,0.8,0.1,1.1-0.3C516.3,168.6,516.2,168.1,515.7,167.9z"/></g><g><path d="M534.9,167.9l-1.4-0.6l1.5-0.6c0.3-0.2,0.5-0.6,0.3-1.1c-0.3-0.5-0.9-0.4-1.1-0.3c0,0-0.1,0-1.2,1
						c0.2-1.5,0.2-1.5,0.2-1.6c0-0.2-0.1-0.4-0.2-0.6c-0.3-0.3-0.8-0.3-1.1,0c-0.2,0.2-0.2,0.3-0.2,0.6c0,0,0,0.1,0.2,1.6
						c-1.2-0.9-1.2-1-1.2-1c-0.4-0.2-0.8-0.1-1.1,0.3c-0.2,0.3-0.2,0.9,0.3,1.1l1.4,0.6l-1.5,0.6c-0.4,0.2-0.5,0.7-0.3,1.1
						c0.3,0.4,0.7,0.5,1.1,0.3c0,0,0.1,0,1.3-1c-0.2,1.5-0.2,1.5-0.2,1.6c0,0.4,0.4,0.8,0.8,0.8c0.4,0,0.8-0.3,0.8-0.8
						c0,0,0-0.1-0.2-1.6c1.2,0.9,1.2,1,1.3,1c0.3,0.2,0.8,0.1,1.1-0.3C535.4,168.6,535.3,168.1,534.9,167.9z"/></g><g><path fill="#6193f6" d="M531.6,118.8c0,10.8-6.2,20.2-15.2,24.9c-3.9,2-8.2,3.1-12.9,3.1c-4.6,0-9-1.1-12.9-3.1
							c-9-4.7-15.2-14.1-15.2-24.9c0-15.5,12.6-28,28-28C519.1,90.8,531.6,103.4,531.6,118.8z"/><path fill="#ff7545" d="M516.5,143.7c-3.9,2-8.2,3.1-12.9,3.1c-4.6,0-9-1.1-12.9-3.1c3.1-3.7,7.7-6.1,12.9-6.1
								C508.8,137.7,513.4,140,516.5,143.7z"/><path fill="#fff" d="M507.6,138.3c0,0.7-8.1,0.7-8.1,0v-5.1h8.1L507.6,138.3z"/><path fill="#060405" d="M491.7,122.2c1.9,2.1,4.9,2.3,7.7,2.3c5.1,0,10.2-0.7,15.2-1.3c0.9-0.1,1.9-0.3,2.6-0.8
								c0.9-0.7,1.2-2.2,0.6-3.2c-0.4-0.8-1.3-1.2-2-1.7c-8.7-4.8-10.3-5.9-12.7-6.4c-4.5-0.9-9.1,1.3-11.1,1.2
								c-0.7,0-1-0.4-1.3,0.3C489.7,115.8,489.5,119.7,491.7,122.2z"/><path fill="#fff" d="M513,122.1c0,6.6-4.2,13.4-9.4,13.4s-9.4-6.8-9.4-13.4C494.3,108.1,513,108.1,513,122.1z"/><ellipse cx="507.6" cy="121.5" fill="#060405" rx="1" ry="1.3"/><ellipse cx="499.8" cy="121.5" fill="#060405" rx="1" ry="1.3"/><path fill="#060405" d="M503.6,131.7c-0.9,0-1.7-0.3-2.4-0.8c-0.2-0.2-0.3-0.5-0.1-0.7s0.5-0.3,0.7-0.1c0.6,0.4,1.3,0.6,2,0.6
								c0.7,0,1.4-0.3,2-0.8c0.2-0.2,0.5-0.2,0.7,0c0.2,0.2,0.2,0.5,0,0.7c-0.7,0.6-1.6,1-2.6,1
								C503.7,131.7,503.6,131.7,503.6,131.7z"/><g><path fill="#060405" d="M495.9,118.2c1.6-0.1,3.1-0.7,4.7-1c5.4-0.8,10.4,3.8,15.9,3.4c1.2-0.1,2.5-0.5,3.2-1.4
								c0.8-0.9,1-2.3,0.2-3.1c-0.7-0.8-2.1-1-2.7-1.9c-0.6-1,0-2.2,0.7-3.2c0.7-0.9,1.5-2,1.2-3.1c-0.3-1-1.3-1.6-2.4-1.8
								c-1-0.2-2.1-0.1-3.2-0.2c-1.1-0.1-2.2-0.6-2.6-1.5c-0.5-0.9-0.1-2.1,0.3-3s0.9-2,0.7-3c-0.2-1.1-1.2-1.9-2.3-2.2
								c-1.1-0.3-2.3-0.2-3.5,0c-4.3,0.7-8.3,2.8-11.2,5.8c-1.6,1.6-2.8,3.5-3.7,5.5c-0.8,1.8-1.7,4.3-1.4,6.2
								C490.3,116.3,492.9,118.3,495.9,118.2z"/></g><g><path fill="#060405" d="M503.7,128.2c-0.6-0.3-0.9-0.9-0.9-1.6c0-1.2,0.8-2.2,0.1-4.5c-0.1-0.3,0.1-0.5,0.3-0.6
							c0.3-0.1,0.5,0.1,0.6,0.3c0.7,2.5-0.1,3.8-0.1,4.7c0,0.3,0.1,0.6,0.4,0.7c0.3,0.1,0.4,0.4,0.2,0.7
							C504.2,128.2,503.9,128.3,503.7,128.2z"/></g></g><g><path fill="#060405" d="M194,125.5c-7.4,2.4-15.1,1.1-21.1-2.8l3.8-5.1l-0.9-0.7l0,0l-0.9-0.7l-3.8,5.2c-3.9-3-7-7.2-8.6-12.2
							c-4.2-13.2,3.1-27.3,16.2-31.5c13.2-4.2,27.3,3,31.5,16.2C214.4,107.2,207.2,121.3,194,125.5z"/><polygon fill="#060405" points="160.6 132.1 162.2 133.3 175.4 115.7 173.7 114.5"/></g><g><path fill="#fff" d="M180.8,108.3l-4.3-4.3c-0.8-0.8-0.8-2.1,0-2.8c0.8-0.8,2.1-0.8,2.8,0l2.9,2.9l11.2-11.2
						c0.8-0.8,2.1-0.8,2.8,0c0.8,0.8,0.8,2.1,0,2.8l-12.6,12.6C182.8,109.1,181.6,109.1,180.8,108.3z"/></g><g><path fill="#c6e2fa" d="M520.6,287.1h-26.6c-0.2,0-0.4-0.2-0.4-0.4s0.2-0.4,0.4-0.4h26.6c0.2,0,0.4,0.2,0.4,0.4
					S520.9,287.1,520.6,287.1z"/><path fill="#c6e2fa" d="M520.6,300.2h-26.6c-0.2,0-0.4-0.2-0.4-0.4s0.2-0.4,0.4-0.4h26.6c0.2,0,0.4,0.2,0.4,0.4
					S520.9,300.2,520.6,300.2z"/><path fill="#c6e2fa" d="M515.8,293.6h-37.6c-0.2,0-0.4-0.2-0.4-0.4s0.2-0.4,0.4-0.4h37.6c0.2,0,0.4,0.2,0.4,0.4
					S516,293.6,515.8,293.6z"/><path fill="#c6e2fa" d="M499.6,287.1c-0.2,0-0.4-0.2-0.4-0.4v-5.6c0-0.2,0.2-0.4,0.4-0.4s0.4,0.2,0.4,0.4v5.6
					C499.9,286.9,499.8,287.1,499.6,287.1z"/><path fill="#c6e2fa" d="M508.9,293.6c-0.2,0-0.4-0.2-0.4-0.4v-6.6c0-0.2,0.2-0.4,0.4-0.4s0.4,0.2,0.4,0.4v6.6
					C509.3,293.5,509.1,293.6,508.9,293.6z"/><path fill="#c6e2fa" d="M501.8,300c-0.2,0-0.4-0.2-0.4-0.4v-6.4c0-0.2,0.2-0.4,0.4-0.4s0.4,0.2,0.4,0.4v6.4
					C502.2,299.8,502,300,501.8,300z"/></g><g><path fill="#c6e2fa" d="M199.9,352.2h-26.6c-0.2,0-0.4-0.2-0.4-0.4s0.2-0.4,0.4-0.4h26.6c0.2,0,0.4,0.2,0.4,0.4
					S200.1,352.2,199.9,352.2z"/><path fill="#c6e2fa" d="M199.9,365.3h-26.6c-0.2,0-0.4-0.2-0.4-0.4s0.2-0.4,0.4-0.4h26.6c0.2,0,0.4,0.2,0.4,0.4
					S200.1,365.3,199.9,365.3z"/><path fill="#c6e2fa" d="M195.1,358.8h-37.6c-0.2,0-0.4-0.2-0.4-0.4s0.2-0.4,0.4-0.4h37.6c0.2,0,0.4,0.2,0.4,0.4
					S195.3,358.8,195.1,358.8z"/><path fill="#c6e2fa" d="M178.8,352.2c-0.2,0-0.4-0.2-0.4-0.4v-5.6c0-0.2,0.2-0.4,0.4-0.4s0.4,0.2,0.4,0.4v5.6
					C179.2,352,179,352.2,178.8,352.2z"/><path fill="#c6e2fa" d="M188.1,358.8c-0.2,0-0.4-0.2-0.4-0.4v-6.6c0-0.2,0.2-0.4,0.4-0.4s0.4,0.2,0.4,0.4v6.6
					C188.5,358.6,188.3,358.8,188.1,358.8z"/><path fill="#c6e2fa" d="M181,365.1c-0.2,0-0.4-0.2-0.4-0.4v-6.4c0-0.2,0.2-0.4,0.4-0.4s0.4,0.2,0.4,0.4v6.4
					C181.4,365,181.2,365.1,181,365.1z"/></g><g><path fill="#c6e2fa" d="M199.2,170.1h-26.6c-0.2,0-0.4-0.2-0.4-0.4s0.2-0.4,0.4-0.4h26.6c0.2,0,0.4,0.2,0.4,0.4
					S199.4,170.1,199.2,170.1z"/><path fill="#c6e2fa" d="M199.2,183.2h-26.6c-0.2,0-0.4-0.2-0.4-0.4s0.2-0.4,0.4-0.4h26.6c0.2,0,0.4,0.2,0.4,0.4
					S199.4,183.2,199.2,183.2z"/><path fill="#c6e2fa" d="M194.4,176.6h-37.6c-0.2,0-0.4-0.2-0.4-0.4s0.2-0.4,0.4-0.4h37.6c0.2,0,0.4,0.2,0.4,0.4
					S194.6,176.6,194.4,176.6z"/><path fill="#c6e2fa" d="M178.1,170.1c-0.2,0-0.4-0.2-0.4-0.4v-5.6c0-0.2,0.2-0.4,0.4-0.4s0.4,0.2,0.4,0.4v5.6
					C178.5,169.9,178.3,170.1,178.1,170.1z"/><path fill="#c6e2fa" d="M187.5,176.6c-0.2,0-0.4-0.2-0.4-0.4v-6.6c0-0.2,0.2-0.4,0.4-0.4s0.4,0.2,0.4,0.4v6.6
					C187.9,176.5,187.7,176.6,187.5,176.6z"/><path fill="#c6e2fa" d="M180.4,183c-0.2,0-0.4-0.2-0.4-0.4v-6.4c0-0.2,0.2-0.4,0.4-0.4s0.4,0.2,0.4,0.4v6.4
					C180.7,182.8,180.6,183,180.4,183z"/></g><g><path fill="#c6e2fa" d="M472.4,73.2h-26.6c-0.2,0-0.4-0.2-0.4-0.4s0.2-0.4,0.4-0.4h26.6c0.2,0,0.4,0.2,0.4,0.4
					S472.6,73.2,472.4,73.2z"/><path fill="#c6e2fa" d="M472.4,86.4h-26.6c-0.2,0-0.4-0.2-0.4-0.4s0.2-0.4,0.4-0.4h26.6c0.2,0,0.4,0.2,0.4,0.4
					S472.6,86.4,472.4,86.4z"/><path fill="#c6e2fa" d="M467.5,79.8H430c-0.2,0-0.4-0.2-0.4-0.4s0.2-0.4,0.4-0.4h37.6c0.2,0,0.4,0.2,0.4,0.4S467.8,79.8,467.5,79.8
					z"/><path fill="#c6e2fa" d="M451.3,73.2c-0.2,0-0.4-0.2-0.4-0.4v-5.6c0-0.2,0.2-0.4,0.4-0.4s0.4,0.2,0.4,0.4v5.6
					C451.7,73,451.5,73.2,451.3,73.2z"/><path fill="#c6e2fa" d="M460.6,79.8c-0.2,0-0.4-0.2-0.4-0.4v-6.6c0-0.2,0.2-0.4,0.4-0.4s0.4,0.2,0.4,0.4v6.6
					C461,79.6,460.8,79.8,460.6,79.8z"/><path fill="#c6e2fa" d="M453.5,86.1c-0.2,0-0.4-0.2-0.4-0.4v-6.4c0-0.2,0.2-0.4,0.4-0.4s0.4,0.2,0.4,0.4v6.4
					C453.9,86,453.7,86.1,453.5,86.1z"/></g></g></svg>